<svg width="17" height="14" viewBox="0 0 17 14" fill="none" xmlns="http://www.w3.org/2000/svg">
<path d="M16.1098 5.78041L11.1946 0.575543C10.7417 0.0959129 9.98677 0.0959129 9.53383 0.575543C9.08089 1.05517 9.08089 1.85456 9.53383 2.33419L12.436 5.42513H1.69968C1.04543 5.42513 0.525391 5.97582 0.525391 6.66862C0.525391 7.36142 1.04543 7.9121 1.69968 7.9121H12.436L9.53383 10.9853C9.08089 11.4649 9.08089 12.2643 9.53383 12.7439C9.76869 12.9926 10.0706 13.117 10.3726 13.117C10.6746 13.117 10.9765 12.9926 11.2114 12.7439L16.1098 7.55682C16.3279 7.32589 16.4621 7.00613 16.4621 6.66862C16.4621 6.3311 16.3447 6.01135 16.1098 5.78041Z" fill="#46A5FF"/>
</svg>
