<svg width="546" height="451" viewBox="0 0 546 451" fill="none" xmlns="http://www.w3.org/2000/svg">
<path fill-rule="evenodd" clip-rule="evenodd" d="M508.326 27H37.674C16.926 27 0 43.9163 0 64.6525V451C0 451 389.025 419.077 453.726 408.982C518.427 398.887 546 363.144 546 326.037V64.6525C546 43.9163 529.347 27 508.326 27Z" fill="#F9FAFD"/>
<g clip-path="url(#clip0)">
<path d="M212.785 184.015V181.118C212.785 179.825 213.818 178.79 215.057 178.79C215.315 178.79 215.625 178.842 215.883 178.945C225.332 182.515 255.745 191.413 298.911 179.359C301.286 178.686 303.816 180.083 304.487 182.463C304.591 182.877 304.642 183.291 304.642 183.705C304.642 185.412 303.61 186.964 302.061 187.636C292.611 191.672 258.223 203.725 215.057 187.378C213.715 186.86 212.785 185.515 212.785 184.015Z" fill="#004CFF"/>
<path d="M212.785 179.152V183.86C212.785 184.791 213.508 185.515 214.437 185.515C214.644 185.515 214.851 185.464 215.057 185.412C223.628 182.049 255.951 171.754 302.319 185.67C303.3 185.981 304.332 185.412 304.591 184.429C304.642 184.274 304.642 184.067 304.642 183.912V180.549C304.642 178.738 303.558 177.083 301.906 176.41C292.147 172.272 257.5 160.321 214.231 177.083C213.353 177.341 212.785 178.169 212.785 179.152Z" fill="#5EB3FE"/>
<path d="M179.843 279.721C183.715 283.498 184.18 289.292 184.18 289.292C184.18 289.292 178.397 288.982 174.524 285.205C170.652 281.429 170.187 275.634 170.187 275.634C170.187 275.634 175.97 275.945 179.843 279.721Z" fill="#5EB3FE"/>
<path d="M329.943 276.048C325.864 279.618 320.081 279.67 320.081 279.67C320.081 279.67 320.855 273.875 324.883 270.306C328.91 266.736 334.745 266.685 334.745 266.685C334.745 266.685 334.022 272.479 329.943 276.048Z" fill="#5EB3FE"/>
<path d="M355.76 338.128C351.681 341.698 345.898 341.749 345.898 341.749C345.898 341.749 346.672 335.955 350.7 332.386C354.727 328.816 360.562 328.764 360.562 328.764C360.562 328.764 359.839 334.559 355.76 338.128Z" fill="#5EB3FE"/>
<path d="M401.198 340.715C397.119 344.284 391.336 344.336 391.336 344.336C391.336 344.336 392.11 338.542 396.138 334.972C400.165 331.403 406 331.351 406 331.351C406 331.351 405.277 337.145 401.198 340.715Z" fill="#5EB3FE"/>
<path d="M146.022 337.611C141.169 335.179 139 329.799 139 329.799C139 329.799 144.628 328.351 149.482 330.782C154.335 333.214 156.504 338.646 156.504 338.646C156.504 338.646 150.824 340.094 146.022 337.611Z" fill="#5EB3FE"/>
<path d="M398.199 35.1268C389.679 37.817 380.798 39.2655 371.814 39.369C381.727 34.8164 389.679 26.7978 394.12 16.8133C384.825 21.0554 374.808 23.6938 364.636 24.5215C349.817 4.65599 321.729 0.569064 301.901 15.4165C291.936 22.8661 285.533 34.1439 284.19 46.5599C283.777 49.9743 283.829 53.4404 284.242 56.8548C248.563 51.1124 217.015 30.4191 197.445 0C183.349 19.1413 186.55 45.9391 204.726 61.2004C197.652 60.2174 190.888 57.579 185.105 53.3887L185.053 53.9577C182.729 75.2201 195.638 95.1891 215.982 101.707C212.058 102.328 208.03 102.432 204.054 101.966C201.266 101.656 198.478 101.087 195.793 100.207C199.614 119.038 215.001 133.368 234.054 135.851C216.911 146.56 196.671 151.113 176.585 148.888C173.022 148.474 169.511 147.905 166 147.077C178.444 157.269 192.695 164.977 208.03 169.788C219.596 159.597 245.568 154.32 274.948 157.579C284.242 158.562 293.485 160.476 302.417 163.167C343.415 142.939 368.509 101.345 372.898 61.6142C373.104 59.7001 373.259 57.7342 373.414 55.8201C382.812 50.4399 391.228 43.4559 398.199 35.1268Z" fill="#5EB3FE"/>
<path d="M225.338 181.974L212.481 334.826L213.511 334.913L226.367 182.061L225.338 181.974Z" fill="#5EB3FE"/>
<path d="M288.775 181.936L287.761 182.129L316.805 335.004L317.819 334.81L288.775 181.936Z" fill="#5EB3FE"/>
<path d="M238.216 193.86L233.678 334.866L234.71 334.899L239.248 193.893L238.216 193.86Z" fill="#5EB3FE"/>
<path d="M278.247 194.312L277.218 194.39L287.862 334.903L288.891 334.824L278.247 194.312Z" fill="#5EB3FE"/>
<path d="M265.142 344.181C295.655 344.181 320.391 340.012 320.391 334.869C320.391 329.726 295.655 325.557 265.142 325.557C234.629 325.557 209.894 329.726 209.894 334.869C209.894 340.012 234.629 344.181 265.142 344.181Z" fill="#5EB3FE"/>
<path d="M286.829 360.943L283.059 368.702C283.059 368.702 276.192 367.823 278.98 376.876C278.98 376.876 278.257 383.757 276.812 385.205C275.366 386.654 277.999 396.276 283.214 393.534C286.157 391.982 286.364 390.172 285.951 388.93C285.331 387.016 285.228 384.998 285.589 383.084C286.157 380.136 287.242 377.342 288.739 374.755C292.095 369.375 295.297 364.098 295.297 364.098L286.829 360.943Z" fill="#FFB8B8"/>
<path d="M277.328 313.348C277.328 313.348 269.015 311.279 266.278 312.779C263.542 314.279 255.332 314.383 255.332 314.383C255.332 314.383 248.464 325.454 250.065 331.196C251.666 336.938 258.378 340.404 258.378 340.404L280.942 340.56L284.608 325.66C284.608 325.66 282.853 315.417 281.407 314.848C279.961 314.279 277.328 313.348 277.328 313.348Z" fill="#004CFF"/>
<path d="M269.893 274.807C276.737 274.807 282.285 269.248 282.285 262.391C282.285 255.534 276.737 249.975 269.893 249.975C263.049 249.975 257.5 255.534 257.5 262.391C257.5 269.248 263.049 274.807 269.893 274.807Z" fill="#2F2E41"/>
<path d="M262.199 273.048C262.199 273.048 263.645 279.204 261.476 279.928C259.307 280.653 257.397 283.601 257.397 283.601L260.598 288.982L271.545 291.775L274.901 288.568L277.379 281.687L274.901 279.928C274.901 279.928 272.577 280.653 272.422 278.325C272.371 276.566 272.422 274.807 272.577 273.048H262.199Z" fill="#FFB8B8"/>
<path opacity="0.1" d="M262.199 273.048C262.199 273.048 263.645 279.204 261.476 279.928C259.307 280.653 257.397 283.601 257.397 283.601L260.598 288.982L271.545 291.775L274.901 288.568L277.379 281.687L274.901 279.928C274.901 279.928 272.577 280.653 272.422 278.325C272.371 276.566 272.422 274.807 272.577 273.048H262.199Z" fill="black"/>
<path d="M267.827 277.031C272.732 277.031 276.708 273.047 276.708 268.133C276.708 263.219 272.732 259.235 267.827 259.235C262.922 259.235 258.946 263.219 258.946 268.133C258.946 273.047 262.922 277.031 267.827 277.031Z" fill="#FFB8B8"/>
<path d="M267.311 288.516L258.843 280.756C258.843 280.756 255.073 283.963 254.609 283.963C254.144 283.963 248.464 285.722 248.361 286.447C248.258 287.171 253.318 294.931 253.318 294.931C253.318 294.931 252.13 300.622 253.318 303.105C254.505 305.588 253.628 316.245 253.628 316.245C253.628 316.245 261.373 313.451 265.452 314.796C269.531 316.142 281.458 314.796 281.458 314.796C281.458 314.796 283.214 303.57 282.491 302.07C281.768 300.57 281.613 292.293 281.613 292.293L287.861 285.412C287.861 285.412 286.57 280.135 281.613 279.877C276.656 279.618 273.61 279.307 273.61 279.307L267.311 288.516Z" fill="#F98F72"/>
<path d="M257.397 324.419C257.397 324.419 241.08 316.969 234.523 313.451C227.965 309.934 217.897 312.727 221.098 320.591C224.299 328.454 242.216 336.214 242.216 336.214C242.216 336.214 248.051 340.611 251.562 340.456C255.073 340.301 260.082 340.404 260.082 340.404L257.397 324.419Z" fill="#004CFF"/>
<path d="M282.595 325.453C282.595 325.453 311.871 325.764 310.012 336.68C308.154 347.595 296.897 365.857 294.832 366.323C292.767 366.788 285.383 363.529 285.383 362.546C285.383 361.563 292.508 342.681 292.508 342.681L275.004 337.3L282.595 325.453Z" fill="#004CFF"/>
<path d="M288.12 292.758C288.12 292.758 289.875 309.571 288.997 312.158C288.12 314.745 285.073 321.936 281.149 325.454C277.225 328.971 271.648 346.612 268.602 338.18C265.555 329.747 273.559 325.04 273.559 325.04L281.614 313.71L281.665 295.293L288.12 292.758Z" fill="#FFB8B8"/>
<path d="M255.332 327.937C255.332 327.937 269.738 333.058 271.338 332.334C272.939 331.61 276.45 334.248 276.45 334.248C279.703 333.524 283.111 334.196 285.899 336.007C290.546 339.059 291.579 342.577 290.546 342.732C289.513 342.888 285.899 341.284 285.899 341.284C285.899 341.284 280.374 340.094 277.018 341.129C273.662 342.163 269.273 339.991 269.273 339.991L251.511 336.007L255.332 327.937Z" fill="#FFB8B8"/>
<path opacity="0.1" d="M255.332 327.937C255.332 327.937 269.738 333.058 271.338 332.334C272.939 331.61 276.45 334.248 276.45 334.248C279.703 333.524 283.111 334.196 285.899 336.007C290.546 339.059 291.579 342.577 290.546 342.732C289.513 342.888 285.899 341.284 285.899 341.284C285.899 341.284 280.374 340.094 277.018 341.129C273.662 342.163 269.273 339.991 269.273 339.991L251.511 336.007L255.332 327.937Z" fill="black"/>
<path d="M284.763 283.705L287.81 285.464C287.81 285.464 288.997 293.224 289.565 294.207C290.133 295.19 282.44 297.88 281.252 297.104C280.065 296.328 279.497 289.24 279.497 289.24L284.763 283.705Z" fill="#F98F72"/>
<path opacity="0.1" d="M235.607 316.245C235.607 316.245 244.488 320.022 246.967 320.642C249.445 321.263 257.448 328.04 257.448 328.04L251.975 336.369C251.975 336.369 246.399 335.697 243.301 335.076C240.203 334.455 222.027 322.35 225.074 320.332C228.12 318.314 235.607 316.245 235.607 316.245Z" fill="black"/>
<path d="M233.8 316.245C233.8 316.245 242.681 320.022 245.16 320.642C247.638 321.263 257.397 327.937 257.397 327.937L252.595 337.3C252.595 337.3 244.592 335.697 241.545 335.128C238.499 334.559 220.272 322.401 223.319 320.384C226.365 318.366 233.8 316.245 233.8 316.245Z" fill="#004CFF"/>
<path d="M272.319 266.426C279.163 266.426 284.711 260.867 284.711 254.01C284.711 247.153 279.163 241.594 272.319 241.594C265.475 241.594 259.927 247.153 259.927 254.01C259.927 260.867 265.475 266.426 272.319 266.426Z" fill="#2F2E41"/>
<path d="M275.83 247.44C279.053 247.44 281.665 244.823 281.665 241.594C281.665 238.365 279.053 235.748 275.83 235.748C272.608 235.748 269.996 238.365 269.996 241.594C269.996 244.823 272.608 247.44 275.83 247.44Z" fill="#2F2E41"/>
<path d="M271.132 305.433H276.708C277.173 305.433 277.534 305.795 277.534 306.261V318.521C277.534 318.987 277.173 319.349 276.708 319.349H271.132C270.667 319.349 270.306 318.987 270.306 318.521V306.261C270.306 305.795 270.667 305.433 271.132 305.433Z" fill="#F9FAFD"/>
<path d="M248.361 299.018C248.361 299.018 248.516 317.124 250.685 319.297C252.853 321.47 266.691 320.384 266.691 320.384C266.691 320.384 275.418 321.78 279.084 316.762C283.214 311.072 268.24 315.728 268.24 315.728C268.24 315.728 257.552 316.245 256.933 315.779C255.022 314.331 254.609 298.242 254.609 298.242L248.361 299.018Z" fill="#FFB8B8"/>
<path d="M250.22 286.343H248.309C248.309 286.343 246.244 288.516 246.399 293.224C246.554 297.932 244.643 300.829 245.831 301.242C247.019 301.656 252.802 299.38 252.75 300.001C252.698 300.622 255.745 299.484 255.745 299.484L253.679 291.724L250.22 286.343Z" fill="#F98F72"/>
</g>
<defs>
<clipPath id="clip0">
<rect width="267" height="394" fill="white" transform="translate(139)"/>
</clipPath>
</defs>
</svg>
