<svg width="86" height="108" viewBox="0 0 86 108" fill="none" xmlns="http://www.w3.org/2000/svg">
<path d="M55.1905 107.635H48.1742C47.1051 107.635 46.3032 106.768 46.3032 105.768C46.3032 104.701 47.1719 103.901 48.1742 103.901H55.1905C56.2597 103.901 57.0615 104.768 57.0615 105.768C57.0615 106.768 56.2597 107.635 55.1905 107.635Z" fill="#F2FF6E"/>
<path d="M52.6514 104.834V97.834C52.6514 96.7673 53.52 95.9673 54.5223 95.9673C55.5915 95.9673 56.3933 96.834 56.3933 97.834V104.834C56.3933 105.901 55.5246 106.701 54.5223 106.701C53.4532 106.768 52.6514 105.901 52.6514 104.834Z" fill="#F2FF6E"/>
<path d="M60.0688 107.635H67.085C68.1542 107.635 68.956 106.768 68.956 105.768C68.956 104.701 68.0874 103.901 67.085 103.901H60.0688C58.9996 103.901 58.1978 104.768 58.1978 105.768C58.1978 106.768 59.0664 107.635 60.0688 107.635Z" fill="#F2FF6E"/>
<path d="M62.6747 104.834V97.834C62.6747 96.7673 61.806 95.9673 60.8037 95.9673C59.7345 95.9673 58.9326 96.834 58.9326 97.834V104.834C58.9326 105.901 59.8013 106.701 60.8037 106.701C61.806 106.768 62.6747 105.901 62.6747 104.834Z" fill="#F2FF6E"/>
<path d="M58.4649 99.4341C44.4992 99.4341 33.0059 88.0337 33.0059 74.0333V52.4994C33.0059 38.5656 44.4324 27.0986 58.4649 27.0986C72.4307 27.0986 83.924 38.499 83.924 52.4994V74.0333C83.924 88.0337 72.4307 99.4341 58.4649 99.4341Z" fill="#6EC5FF"/>
<path d="M45.3678 64.766C50.4975 64.766 54.656 60.6171 54.656 55.4991C54.656 50.3811 50.4975 46.2322 45.3678 46.2322C40.2381 46.2322 36.0796 50.3811 36.0796 55.4991C36.0796 60.6171 40.2381 64.766 45.3678 64.766Z" fill="white"/>
<path d="M45.1005 58.2991C46.6504 58.2991 47.9069 57.0455 47.9069 55.4991C47.9069 53.9526 46.6504 52.699 45.1005 52.699C43.5505 52.699 42.2939 53.9526 42.2939 55.4991C42.2939 57.0455 43.5505 58.2991 45.1005 58.2991Z" fill="black"/>
<path d="M71.2945 64.766C76.4243 64.766 80.5828 60.6171 80.5828 55.4991C80.5828 50.3811 76.4243 46.2322 71.2945 46.2322C66.1648 46.2322 62.0063 50.3811 62.0063 55.4991C62.0063 60.6171 66.1648 64.766 71.2945 64.766Z" fill="white"/>
<path d="M71.0272 58.2991C72.5772 58.2991 73.8337 57.0455 73.8337 55.4991C73.8337 53.9526 72.5772 52.699 71.0272 52.699C69.4772 52.699 68.2207 53.9526 68.2207 55.4991C68.2207 57.0455 69.4772 58.2991 71.0272 58.2991Z" fill="black"/>
<path d="M51.6489 65.2996H58.5315H65.2805L58.732 74.4332L51.6489 65.2996Z" fill="#F2FF6E"/>
<path d="M19.291 15.6131C26.9876 11.5455 32.2466 6.40171 31.0373 4.12406C29.8281 1.84641 22.6085 3.29743 14.9119 7.36499C7.21537 11.4326 1.95637 16.5764 3.16562 18.854C4.37487 21.1317 11.5945 19.6807 19.291 15.6131Z" fill="black"/>
<path d="M31.5321 38.6164C42.816 32.6529 50.5351 25.1281 48.773 21.8092C47.011 18.4903 36.4351 20.6342 25.1511 26.5977C13.8672 32.5612 6.14816 40.086 7.91021 43.4048C9.67226 46.7237 20.2481 44.5798 31.5321 38.6164Z" fill="black"/>
<path d="M31.0427 4.10767L3.1709 18.8376L14.3689 39.9292L42.2407 25.1993L31.0427 4.10767Z" fill="black"/>
<path d="M33.0729 71.1002C33.0729 71.1002 3.27048 59.4332 7.88117 43.366C12.4919 27.2989 13.0264 44.8994 13.0264 44.8994C13.0264 44.8994 17.0357 30.4323 21.2455 43.0327C25.4553 55.6331 36.0799 63.2333 36.0799 63.2333L33.0729 71.1002Z" fill="#6EC5FF"/>
<path d="M83.924 72.2998C88.401 80.5 80.5829 103.101 53.5869 98.5672C37.0819 95.8338 55.5916 93.567 55.5916 93.567C55.5916 93.567 41.4922 88.3002 54.4556 85.2335C67.419 82.1667 75.9722 72.2998 75.9722 72.2998C75.9722 72.2998 82.8548 70.4997 83.924 72.2998Z" fill="#6EC4FF"/>
<path d="M12.9593 37.2991C29.1302 34.4991 37.0819 26.8322 40.5567 22.0987L38.953 19.0986C37.9506 20.6987 36.0796 23.0321 33.2063 25.4321C26.6578 30.8323 18.5055 33.3657 11.4893 34.4991L12.9593 37.2991Z" fill="white"/>
<path d="M46.9717 74.9668L58.5319 80.1003L54.5894 83.8337L46.9717 74.9668Z" fill="white"/>
<path d="M70.1587 74.9668L58.5317 80.1003L62.541 83.8337L70.1587 74.9668Z" fill="white"/>
</svg>
