<svg width="78" height="54" viewBox="0 0 78 54" fill="none" xmlns="http://www.w3.org/2000/svg">
<path d="M18.8306 11.4751C17.9172 10.6881 17.0037 9.94238 16.2978 8.98958C15.675 8.20248 15.2183 7.24968 15.2183 6.21402C15.2183 5.2198 15.8411 4.18415 16.7961 3.89417C17.8756 3.56276 19.0798 4.267 19.6611 5.26123C20.2424 6.25546 20.3669 7.4154 20.4085 8.5339" fill="#6EC8FF"/>
<path d="M21.4468 9.15538C20.5334 8.36828 19.6199 7.62261 18.914 6.6698C18.2912 5.8827 17.8345 4.92989 17.8345 3.89423C17.8345 2.9 18.4573 1.86433 19.4123 1.57435C20.4918 1.24293 21.696 1.9472 22.2773 2.94143C22.8586 3.93567 22.9831 5.09559 23.0247 6.2141" fill="#6EC8FF"/>
<path d="M24.0626 7.66393C23.1491 6.87683 22.2356 6.13115 21.5298 5.17834C20.9069 4.39124 20.4502 3.43842 20.4502 2.40276C20.4502 1.3671 21.073 0.372878 22.028 0.0828926C23.1076 -0.248519 24.3117 0.455725 24.893 1.44996C25.4743 2.4442 25.5989 3.60415 25.6404 4.72266" fill="#6EC8FF"/>
<path d="M38.1797 45.8176L38.0552 44.8647L43.0793 44.4091L44.8232 35.2124L45.7367 35.3781L43.8682 45.279L38.1797 45.8176Z" fill="#F2FF6E"/>
<path d="M43.2453 49.4217L42.3319 49.256L42.8301 46.0247L39.8821 48.386L39.3008 47.6818L44.1173 43.7048L43.2453 49.4217Z" fill="#F2FF6E"/>
<path d="M27.0106 33.7625C27.0106 33.7625 8.65805 18.6004 22.5262 6.58678C36.436 -5.42688 47.6468 6.83532 51.7989 12.345C56.3663 18.3933 65.7086 34.4667 77.5007 28.5842C77.5007 28.5842 65.2519 54.4343 28.0071 33.7625" fill="#6EC8FF"/>
<path d="M33.8618 26.0572C37.6455 26.0572 40.7128 22.9969 40.7128 19.2218C40.7128 15.4468 37.6455 12.3865 33.8618 12.3865C30.0781 12.3865 27.0107 15.4468 27.0107 19.2218C27.0107 22.9969 30.0781 26.0572 33.8618 26.0572Z" fill="white"/>
<path d="M33.6542 21.293C34.8008 21.293 35.7303 20.3657 35.7303 19.2217C35.7303 18.0778 34.8008 17.1504 33.6542 17.1504C32.5076 17.1504 31.5781 18.0778 31.5781 19.2217C31.5781 20.3657 32.5076 21.293 33.6542 21.293Z" fill="black"/>
<path d="M25.1421 31.4011L27.0936 37.7808L31.8271 32.8096L25.1421 31.4011Z" fill="#F2FF6E"/>
<path d="M56.3249 51.1201L55.9097 50.2916L60.3525 47.9717L58.484 38.7751L59.3975 38.6094L61.432 48.4688L56.3249 51.1201Z" fill="#F2FF6E"/>
<path d="M58.9408 52.8602L58.1104 52.4045L61.0584 46.8948L62.4286 52.5287L61.4736 52.7359L60.7262 49.5461L58.9408 52.8602Z" fill="#F2FF6E"/>
<path d="M67.079 32.1882C67.079 32.1882 63.176 35.3367 56.1173 30.4069C49.4739 25.8086 52.7541 13.6707 52.7541 13.6707C52.7541 13.6707 61.3906 29.4127 72.1447 29.8684L67.079 32.1882Z" fill="#6EC8FF"/>
<path d="M13.6406 53.9787C12.0628 53.9787 10.0282 53.1502 9.61303 52.9845C9.11477 52.7773 8.65803 52.4873 8.24282 52.1973C7.99369 52.0316 7.74456 51.8659 7.49543 51.7417C6.62348 51.286 5.54392 51.2031 4.46436 51.5345C3.42632 51.8659 2.55437 52.5288 2.09763 53.3987C1.80698 53.9373 1.14263 54.1444 0.602854 53.8958C0.0630743 53.6059 -0.144533 52.943 0.104596 52.4045C0.810462 50.996 2.18067 49.9189 3.75849 49.4218C5.37783 48.9246 7.08021 49.0489 8.49195 49.7946C8.82412 49.9603 9.15629 50.1675 9.44694 50.3746C9.77911 50.6232 10.1113 50.8303 10.4435 50.9545C11.4815 51.4102 12.9763 51.8245 13.7237 51.7831C14.6787 51.7002 14.9693 51.4517 15.0523 51.3274C15.2184 51.0788 15.0939 50.6646 15.0523 50.4989C15.0523 50.4574 15.0108 50.3746 15.0108 50.3746C14.6787 48.6761 15.26 46.8533 16.5056 45.6934C17.7512 44.5334 19.6612 44.1192 21.2806 44.5749C21.8619 44.7406 22.1941 45.362 22.028 45.9419C21.8619 46.5219 21.2391 46.8533 20.6578 46.6876C19.7443 46.4391 18.7062 46.6462 18.0004 47.309C17.2945 47.9304 16.9623 49.0075 17.1699 49.9189C17.4606 50.996 17.336 51.8659 16.8378 52.6116C16.2565 53.3987 15.26 53.8958 13.8897 53.9787C13.8482 53.9787 13.7652 53.9787 13.6406 53.9787Z" fill="#E4FF6E"/>
<path d="M19.7858 45.7346C20.0381 45.7346 20.2426 45.5306 20.2426 45.2789C20.2426 45.0273 20.0381 44.8232 19.7858 44.8232C19.5336 44.8232 19.3291 45.0273 19.3291 45.2789C19.3291 45.5306 19.5336 45.7346 19.7858 45.7346Z" fill="white"/>
</svg>
