<svg width="53" height="67" viewBox="0 0 53 67" fill="none" xmlns="http://www.w3.org/2000/svg">
<path d="M33.563 66.6345H29.2193C28.5574 66.6345 28.061 66.098 28.061 65.4789C28.061 64.8185 28.5988 64.3232 29.2193 64.3232H33.563C34.2249 64.3232 34.7213 64.8598 34.7213 65.4789C34.7213 66.098 34.2249 66.6345 33.563 66.6345Z" fill="#F2FF6E"/>
<path d="M31.9912 64.901V60.5673C31.9912 59.9069 32.529 59.4116 33.1495 59.4116C33.8114 59.4116 34.3078 59.9482 34.3078 60.5673V64.901C34.3078 65.5613 33.77 66.0566 33.1495 66.0566C32.4876 66.0979 31.9912 65.5613 31.9912 64.901Z" fill="#F2FF6E"/>
<path d="M36.5831 66.6345H40.9268C41.5886 66.6345 42.0851 66.098 42.0851 65.4789C42.0851 64.8185 41.5473 64.3232 40.9268 64.3232H36.5831C35.9212 64.3232 35.4248 64.8598 35.4248 65.4789C35.4248 66.098 35.9626 66.6345 36.5831 66.6345Z" fill="#F2FF6E"/>
<path d="M38.1965 64.901V60.5673C38.1965 59.9069 37.6587 59.4116 37.0382 59.4116C36.3763 59.4116 35.8799 59.9482 35.8799 60.5673V64.901C35.8799 65.5613 36.4177 66.0566 37.0382 66.0566C37.6587 66.0979 38.1965 65.5613 38.1965 64.901Z" fill="#F2FF6E"/>
<path d="M35.5903 61.5576C26.9444 61.5576 19.8291 54.4999 19.8291 45.8325V32.5012C19.8291 23.8751 26.903 16.7761 35.5903 16.7761C44.2362 16.7761 51.3515 23.8339 51.3515 32.5012V45.8325C51.3515 54.4999 44.2362 61.5576 35.5903 61.5576Z" fill="#6EC5FF"/>
<path d="M27.4821 40.0958C30.6578 40.0958 33.2322 37.5273 33.2322 34.3588C33.2322 31.1904 30.6578 28.6218 27.4821 28.6218C24.3064 28.6218 21.7319 31.1904 21.7319 34.3588C21.7319 37.5273 24.3064 40.0958 27.4821 40.0958Z" fill="white"/>
<path d="M27.3166 36.0922C28.2761 36.0922 29.054 35.3161 29.054 34.3587C29.054 33.4014 28.2761 32.6252 27.3166 32.6252C26.357 32.6252 25.5791 33.4014 25.5791 34.3587C25.5791 35.3161 26.357 36.0922 27.3166 36.0922Z" fill="black"/>
<path d="M43.5329 40.0958C46.7086 40.0958 49.283 37.5273 49.283 34.3588C49.283 31.1904 46.7086 28.6218 43.5329 28.6218C40.3571 28.6218 37.7827 31.1904 37.7827 34.3588C37.7827 37.5273 40.3571 40.0958 43.5329 40.0958Z" fill="white"/>
<path d="M43.3673 36.0922C44.3269 36.0922 45.1048 35.3161 45.1048 34.3587C45.1048 33.4014 44.3269 32.6252 43.3673 32.6252C42.4078 32.6252 41.6299 33.4014 41.6299 34.3587C41.6299 35.3161 42.4078 36.0922 43.3673 36.0922Z" fill="black"/>
<path d="M31.3706 40.4258H35.6315H39.8096L35.7556 46.0802L31.3706 40.4258Z" fill="#F2FF6E"/>
<path d="M11.3384 9.66586C16.1032 7.14771 19.359 3.96327 18.6104 2.55322C17.8617 1.14317 13.3922 2.04147 8.62742 4.55962C3.86263 7.07777 0.60688 10.2622 1.3555 11.6723C2.10413 13.0823 6.57364 12.184 11.3384 9.66586Z" fill="black"/>
<path d="M18.9164 23.9064C25.9021 20.2146 30.6808 15.5561 29.5899 13.5015C28.4991 11.4468 21.9518 12.774 14.9661 16.4659C7.98039 20.1578 3.2017 24.8163 4.29255 26.8709C5.3834 28.9255 11.9307 27.5983 18.9164 23.9064Z" fill="black"/>
<path d="M18.6138 2.54307L1.35889 11.6621L8.29134 24.7195L25.5462 15.6005L18.6138 2.54307Z" fill="black"/>
<path d="M19.8704 44.0165C19.8704 44.0165 1.42028 36.7937 4.27467 26.8469C7.12906 16.9 7.46 27.7962 7.46 27.7962C7.46 27.7962 9.94209 18.8399 12.5483 26.6405C15.1545 34.4412 21.732 39.1463 21.732 39.1463L19.8704 44.0165Z" fill="#6EC5FF"/>
<path d="M51.3516 44.7594C54.1233 49.836 49.2832 63.8277 32.5705 61.0211C22.3526 59.3289 33.8116 57.9256 33.8116 57.9256C33.8116 57.9256 25.0829 54.665 33.1083 52.7664C41.1337 50.8679 46.4288 44.7594 46.4288 44.7594C46.4288 44.7594 50.6897 43.6451 51.3516 44.7594Z" fill="#6EC4FF"/>
<path d="M7.41888 23.0911C17.4299 21.3576 22.3527 16.6112 24.5039 13.6808L23.511 11.8235C22.8905 12.814 21.7322 14.2586 19.9534 15.7444C15.8993 19.0876 10.8524 20.656 6.50879 21.3576L7.41888 23.0911Z" fill="white"/>
<path d="M28.4751 46.4106L35.6318 49.5887L33.1911 51.9L28.4751 46.4106Z" fill="white"/>
<path d="M42.8299 46.4106L35.6318 49.5887L38.1139 51.9L42.8299 46.4106Z" fill="white"/>
</svg>
