<svg width="83" height="83" viewBox="0 0 83 83" fill="none" xmlns="http://www.w3.org/2000/svg">
<rect width="83" height="83" rx="41.5" fill="#CAEAFF"/>
<g clip-path="url(#clip0)">
<path opacity="0.4" d="M60.3336 32.0863V33.9955H26.183C26.0672 33.9955 25.9555 33.9955 25.8397 33.9955C25.7033 33.9955 25.5668 33.9955 25.4262 33.9955C25.2897 33.9955 25.1367 33.9955 25.0126 33.9955V27.3372C25.0126 26.5872 24.901 25.7328 25.3062 25.059C25.7033 24.4012 26.427 24.0121 27.2044 24.0001C27.3368 24.0001 27.465 24.0081 27.5973 24.0081H29.9959C31.6376 24.0081 33.2794 23.9961 34.9212 24.0001C35.4671 24.0001 35.9716 24.1565 36.3934 24.4975C36.625 24.682 36.7987 24.9346 36.9848 25.1633C37.5596 25.8772 38.1345 26.5912 38.7093 27.3052C38.9243 27.5699 39.1228 27.8506 39.4454 28.0031C39.6563 28.1033 39.8838 28.1354 40.1195 28.1354H57.0666C57.3974 28.1354 57.7283 28.1314 58.0591 28.1314C59.2791 28.1354 60.2716 29.0419 60.3171 30.2252C60.3171 30.2372 60.3171 30.2492 60.3171 30.2613C60.3171 30.3014 60.3295 30.2853 60.3295 30.2933C60.346 30.887 60.3336 31.4926 60.3336 32.0863Z" fill="#18A0FB"/>
<path opacity="0.4" d="M60.3325 35.6039V44.2476C60.2084 44.1353 60.0595 44.027 59.9189 43.9187C59.7825 43.8184 59.646 43.7181 59.5054 43.6259C59.4599 43.5938 59.4144 43.5657 59.3648 43.5336C59.3565 43.5296 59.3482 43.5216 59.34 43.5176C59.2986 43.4895 59.2531 43.4614 59.2076 43.4333C59.158 43.4013 59.1084 43.3732 59.0588 43.3411C59.0091 43.309 58.9595 43.2809 58.9057 43.2528C58.8561 43.2248 58.8065 43.1967 58.7569 43.1686C58.7527 43.1686 58.7527 43.1646 58.7486 43.1646C58.7031 43.1405 58.6535 43.1125 58.608 43.0884C58.6039 43.0844 58.5956 43.0804 58.5914 43.0804C58.5501 43.0603 58.5046 43.0363 58.4633 43.0162C58.455 43.0122 58.4426 43.0082 58.4343 43.0002C58.3847 42.9761 58.3351 42.952 58.2854 42.928C58.2523 42.9119 58.2151 42.8959 58.182 42.8798C58.1531 42.8678 58.1241 42.8517 58.0952 42.8397C58.0662 42.8277 58.0373 42.8116 58.0042 42.7996C57.9711 42.7836 57.9339 42.7675 57.9008 42.7555C57.814 42.7194 57.7271 42.6833 57.6403 42.6512C57.5989 42.6352 57.5534 42.6191 57.508 42.5991C57.1399 42.4627 56.7636 42.3464 56.379 42.2541C54.4808 41.8009 52.4131 41.9051 50.5935 42.6111C49.3611 43.0884 48.2611 43.7863 47.3306 44.6727C47.2892 44.7129 47.2479 44.7489 47.2107 44.7891C47.1693 44.8292 47.1321 44.8693 47.0907 44.9094C46.8178 45.1902 46.5573 45.487 46.3174 45.7998C43.9395 48.8883 43.8692 53.3325 46.123 56.5052C46.1272 56.5132 46.1354 56.5212 46.1396 56.5293C46.2388 56.6656 46.3381 56.802 46.4415 56.9304C46.549 57.0667 46.6606 57.2111 46.7806 57.3315H27.5176C26.9634 57.3315 26.4341 57.2833 25.9626 56.9584C25.3175 56.5132 25.0156 55.8354 25.0156 55.0773V35.5999H59.1249C59.2531 35.5999 59.3772 35.5999 59.5054 35.5999C59.6419 35.5999 59.7825 35.5999 59.9189 35.6039C60.0554 35.6079 60.2084 35.6039 60.3325 35.6039Z" fill="#18A0FB"/>
<path d="M61.9712 50.577C61.9629 50.4687 61.9505 50.3644 61.9381 50.2561C61.9381 50.2521 61.9381 50.2441 61.9381 50.2401C61.9381 50.2321 61.9339 50.224 61.9339 50.216C61.9257 50.1639 61.9174 50.1117 61.9091 50.0596C61.8306 49.6144 61.7148 49.1772 61.5659 48.748C61.5204 48.6196 61.4708 48.4953 61.4211 48.3709C61.4129 48.3549 61.4046 48.3268 61.3922 48.3028C61.3922 48.3028 61.3922 48.3028 61.3922 48.2988C61.3757 48.2627 61.3591 48.2266 61.3426 48.1905C61.2557 48.0019 61.1606 47.8174 61.0572 47.6369C60.9414 47.4284 60.8174 47.2278 60.685 47.0313C60.623 46.939 60.5568 46.8468 60.4865 46.7545C60.47 46.7305 60.4038 46.6422 60.3666 46.5941C60.1061 46.2451 59.7752 45.9283 59.4527 45.6354C59.279 45.479 59.1011 45.3306 58.9151 45.1862C58.9109 45.1822 58.9068 45.1782 58.9026 45.1742C58.8944 45.1702 58.8902 45.1621 58.8778 45.1581C58.8323 45.1261 58.791 45.094 58.7455 45.0659C58.6504 44.9977 58.5511 44.9335 58.4519 44.8693C58.0507 44.6126 57.6248 44.4001 57.1906 44.2035C57.1823 44.1995 57.174 44.1955 57.1657 44.1915C57.1616 44.1915 57.1533 44.1875 57.1451 44.1835C57.083 44.1594 57.021 44.1353 56.959 44.1113C56.8556 44.0752 56.7522 44.0391 56.6488 44.003C56.4296 43.9308 56.2022 43.8666 55.9789 43.8104C55.7266 43.7503 55.4743 43.6981 55.2179 43.662C55.2179 43.662 55.1559 43.654 55.1187 43.65H55.1146C55.0773 43.646 55.036 43.642 55.0318 43.642C54.9161 43.6299 54.8044 43.6179 54.6886 43.6099C54.2296 43.5778 53.7705 43.5818 53.3115 43.6179C53.1998 43.6259 53.0923 43.638 52.9807 43.65C52.9807 43.65 52.9807 43.65 52.9765 43.65C52.9724 43.65 52.9683 43.65 52.9641 43.654C52.9186 43.662 52.869 43.666 52.8235 43.6741C52.6291 43.7062 52.4348 43.7423 52.2445 43.7864C51.8475 43.8786 51.4588 43.9949 51.0825 44.1393C51.0453 44.1554 50.9584 44.1714 50.9295 44.1995C50.9791 44.1795 51.008 44.1674 51.0204 44.1634C51.0122 44.1674 50.9956 44.1714 50.975 44.1835C50.9584 44.1915 50.9419 44.1955 50.9253 44.2035C50.8426 44.2396 50.7599 44.2757 50.6772 44.3158C50.4952 44.4001 50.3216 44.4883 50.1479 44.5846C49.9742 44.6808 49.8046 44.7811 49.6392 44.8894C49.4945 44.9817 49.2587 45.094 49.1554 45.2263C49.1843 45.2063 49.2091 45.1862 49.2381 45.1662C49.2091 45.1862 49.1802 45.2103 49.1554 45.2303C49.114 45.2624 49.0726 45.2985 49.0313 45.3306C48.961 45.3868 48.8948 45.4429 48.8245 45.5031C48.688 45.6194 48.5598 45.7397 48.4316 45.8641C48.2786 46.0125 48.1339 46.1649 47.9933 46.3253C47.9354 46.3935 47.8775 46.4577 47.8196 46.5259C47.8113 46.5379 47.7989 46.5459 47.7906 46.558C47.7741 46.578 47.7617 46.6021 47.7493 46.6141C47.5094 46.923 47.2944 47.2479 47.1 47.5888C46.9966 47.7653 46.9057 47.9458 46.8147 48.1303C46.794 48.1704 46.7775 48.2105 46.7568 48.2506C46.7402 48.2827 46.7278 48.3148 46.7113 48.3469C46.7237 48.3148 46.7402 48.2867 46.7526 48.2546C46.703 48.3028 46.6741 48.4431 46.6534 48.5033C46.5087 48.8723 46.3929 49.2534 46.3019 49.6384C46.2564 49.835 46.2192 50.0315 46.1861 50.228C46.1861 50.2321 46.1861 50.2361 46.1861 50.2401C46.1861 50.2401 46.1861 50.2401 46.1861 50.2441C46.182 50.2882 46.1737 50.3283 46.1695 50.3724C46.1571 50.4727 46.1489 50.573 46.1406 50.6773C46.1075 51.1185 46.1116 51.5597 46.1489 52.0009C46.1571 52.0771 46.1613 52.1573 46.1695 52.2335C46.1695 52.2456 46.1737 52.2777 46.1778 52.3098C46.1778 52.3138 46.1778 52.3178 46.1778 52.3258C46.1902 52.4221 46.2109 52.5143 46.2274 52.6106C46.2688 52.8232 46.3143 53.0357 46.3722 53.2483C46.4383 53.497 46.5169 53.7457 46.6079 53.9863C46.6451 54.0866 46.6865 54.1869 46.7278 54.2872C46.7278 54.2912 46.732 54.2992 46.732 54.3032C46.732 54.3032 46.732 54.3032 46.732 54.3072C46.7361 54.3153 46.7402 54.3233 46.7444 54.3313C46.7651 54.3714 46.7816 54.4075 46.7981 54.4476C46.9966 54.8688 47.2365 55.2779 47.5053 55.6629C47.5797 55.7672 47.6542 55.8675 47.7328 55.9718C47.741 55.9838 47.7493 55.9918 47.7534 55.9999C47.7576 56.0039 47.7576 56.0039 47.7617 56.0079C47.7948 56.048 47.8279 56.0881 47.8651 56.1322C48.0057 56.3007 48.1546 56.4611 48.3117 56.6176C48.4689 56.778 48.6384 56.9344 48.808 57.0828C48.9031 57.1631 48.9982 57.2433 49.0933 57.3195C49.1264 57.3436 49.1595 57.3716 49.1926 57.3957C49.2008 57.3997 49.205 57.4077 49.2091 57.4117C49.2132 57.4158 49.2174 57.4158 49.2215 57.4198C49.5978 57.6845 49.9866 57.9292 50.396 58.1377C50.5821 58.234 50.7723 58.3263 50.9667 58.4065C50.9708 58.4065 50.975 58.4105 50.9791 58.4105C50.9832 58.4105 50.9832 58.4145 50.9874 58.4145C51.0411 58.4345 51.1569 58.4787 51.19 58.4907C51.3017 58.5308 51.4133 58.5709 51.525 58.603C51.9675 58.7434 52.4224 58.8517 52.8814 58.9239C52.9186 58.9319 52.9558 58.9359 52.9972 58.9399C53.051 58.948 53.1006 58.952 53.1543 58.956C53.2743 58.968 53.3983 58.976 53.5183 58.9841C53.7374 58.9961 53.9566 59.0001 54.1758 59.0001C54.4074 58.9961 54.6348 58.9841 54.8664 58.964C54.9533 58.956 55.036 58.948 55.1187 58.9399H55.1228H55.127C55.1725 58.9319 55.2221 58.9279 55.2676 58.9199C55.6728 58.8557 56.074 58.7635 56.4627 58.6431C56.6571 58.583 56.8473 58.5188 57.0334 58.4466C57.0541 58.4386 57.0913 58.4305 57.1244 58.4185C57.1327 58.4105 57.1492 58.4025 57.1657 58.3944C57.2567 58.3543 57.3477 58.3142 57.4387 58.2741C57.7985 58.1056 58.1459 57.9131 58.4808 57.7005C58.6049 57.6203 58.7869 57.5321 58.9068 57.4238C58.9192 57.4077 58.944 57.3797 58.9688 57.3596C58.9978 57.3395 59.0267 57.3155 59.0515 57.2914C59.126 57.2312 59.2045 57.1671 59.279 57.1029C59.5685 56.8542 59.8414 56.5855 60.0978 56.3007C60.1764 56.2165 60.2467 56.1282 60.3252 56.04C60.3335 56.0279 60.3459 56.0199 60.3542 56.0079C60.3749 55.9798 60.3914 55.9517 60.408 55.9277C60.5155 55.7873 60.6189 55.6429 60.7181 55.4945C60.9332 55.1696 61.1275 54.8287 61.2971 54.4757C61.326 54.4195 61.3508 54.3634 61.3757 54.3072C61.3881 54.2792 61.4005 54.2631 61.4129 54.2551C61.4377 54.1989 61.4542 54.1267 61.4708 54.0826C61.5411 53.8981 61.6072 53.7136 61.6651 53.5251C61.7851 53.144 61.8678 52.755 61.9339 52.3619C61.9339 52.3579 61.9339 52.3539 61.9339 52.3499C61.9339 52.3499 61.9339 52.3499 61.9339 52.3459C61.9381 52.2937 61.9463 52.2416 61.9505 52.1894C61.9588 52.0972 61.967 52.0049 61.9753 51.9127C61.9918 51.7081 61.996 51.4995 61.996 51.295C62.0042 51.0543 61.9918 50.8136 61.9712 50.577ZM58.0756 51.8605C57.9308 52.0009 57.7902 52.1373 57.6455 52.2777C56.6488 53.2443 55.648 54.215 54.6514 55.1816C54.5273 55.302 54.366 55.3782 54.1965 55.4022C53.9897 55.4343 53.7705 55.3902 53.5927 55.2739C53.5555 55.2458 53.5183 55.2177 53.4811 55.1856C53.3363 55.0453 53.1957 54.9089 53.051 54.7685L50.0569 51.8645C49.7302 51.5477 49.755 51.0503 50.0569 50.7294C50.3588 50.4085 50.9212 50.4326 51.2272 50.7294C51.372 50.8698 51.5043 51.0062 51.649 51.1466C52.1784 51.66 52.7284 52.1694 53.2247 52.6828V47.9698C53.2247 47.5206 53.6051 47.1877 54.0517 47.1676C54.4984 47.1476 54.8788 47.5487 54.8788 47.9698V52.6788C55.5819 52.029 56.2311 51.3752 56.9011 50.7254C57.2278 50.4085 57.7447 50.4326 58.0756 50.7254C58.3981 51.0182 58.3816 51.5637 58.0756 51.8605Z" fill="#18A0FB"/>
</g>
<defs>
<clipPath id="clip0">
<rect width="37" height="35" fill="white" transform="translate(25 24)"/>
</clipPath>
</defs>
</svg>
