<svg width="19" height="19" viewBox="0 0 19 19" fill="none" xmlns="http://www.w3.org/2000/svg">
<path d="M10.4357 0.74857L12.7625 5.70482L17.9479 6.49969C18.3911 6.56983 18.6792 6.99064 18.6127 7.43483C18.5905 7.62186 18.5019 7.78551 18.3911 7.92578L14.6239 11.7832L15.5103 17.2304C15.5768 17.6746 15.2887 18.1188 14.8677 18.189C14.6904 18.2123 14.5131 18.189 14.358 18.0955L9.72655 15.5238L5.09512 18.0955C4.7184 18.3059 4.23088 18.1422 4.03144 17.7448C3.9428 17.5811 3.92064 17.3941 3.9428 17.2071L4.8292 11.7599L1.08416 7.92578C0.77392 7.59848 0.77392 7.08416 1.062 6.75686C1.19496 6.61659 1.35008 6.54645 1.52736 6.52307L6.7128 5.7282L9.01743 0.74857C9.21687 0.327756 9.68223 0.164106 10.0811 0.374513C10.2362 0.444649 10.3692 0.58492 10.4357 0.74857Z" fill="#06AE6E"/>
</svg>
