<svg width="116" height="25" viewBox="0 0 116 25" fill="none" xmlns="http://www.w3.org/2000/svg">
<path d="M35.4114 16.5385L34.8644 18.9609C34.6169 19.026 34.2393 19.0586 33.7313 19.0586C32.9238 19.0586 32.2792 18.8502 31.7973 18.4335C31.3154 18.0167 31.0745 17.4046 31.0745 16.5971C31.0745 16.2585 31.1266 15.8613 31.2308 15.4054L32.2466 10.9513H30.8596L31.3675 8.76328H32.7545L33.3406 6.22364H36.1147L35.5286 8.76328H37.2282L36.7203 10.9513H35.0207L33.9462 15.6399C33.9071 15.7961 33.8876 15.9264 33.8876 16.0306C33.8876 16.4343 34.1741 16.6362 34.7472 16.6362L35.4114 16.5385ZM46.0571 19L45.4125 12.7876H45.3734L41.857 19H39.2587L38.0475 8.76328H40.8802L41.3686 15.3859L44.9631 8.76328H47.5419L48.0889 15.425L51.6639 8.76328H54.5942L48.6554 19H46.0571ZM53.2536 19L55.5979 8.76328H58.372L56.0081 19H53.2536ZM55.9691 5.85246C55.9691 5.37058 56.1384 4.96033 56.477 4.62171C56.8156 4.27007 57.2454 4.09425 57.7664 4.09425C58.2482 4.09425 58.6324 4.24402 58.919 4.54357C59.2055 4.83009 59.3487 5.20778 59.3487 5.67664C59.3487 6.15852 59.1794 6.57528 58.8408 6.92693C58.5022 7.26555 58.0724 7.43486 57.5515 7.43486C57.0696 7.43486 56.6854 7.29159 56.3989 7.00507C56.1123 6.70552 55.9691 6.32132 55.9691 5.85246ZM64.0659 8.52886C65.5896 8.52886 66.6836 9.05632 67.3479 10.1112L67.6604 8.76328H70.3368L67.973 19.0391C67.3218 21.8652 65.505 23.2783 62.5225 23.2783C61.0769 23.2783 59.9894 22.8941 59.2601 22.1257C58.5438 21.3703 58.1856 20.5108 58.1856 19.547H60.8815C61.0118 20.4456 61.6434 20.895 62.7765 20.895C64.1049 20.895 64.9319 20.2308 65.2575 18.9023L65.492 17.906C64.8278 18.5311 63.89 18.8437 62.6788 18.8437C61.4676 18.8437 60.4908 18.453 59.7485 17.6716C59.0191 16.8901 58.6545 15.8547 58.6545 14.5654C58.6545 12.8462 59.1494 11.4136 60.1392 10.2675C61.129 9.10842 62.4379 8.52886 64.0659 8.52886ZM66.4297 13.0221C66.4297 12.3969 66.2408 11.902 65.8631 11.5374C65.4985 11.1597 64.971 10.9708 64.2808 10.9708C63.4212 10.9708 62.7309 11.2834 62.21 11.9085C61.689 12.5337 61.4285 13.3477 61.4285 14.3505C61.4285 14.9756 61.6109 15.4771 61.9755 15.8547C62.3532 16.2194 62.8872 16.4017 63.5775 16.4017C64.437 16.4017 65.1273 16.0892 65.6483 15.464C66.1692 14.8389 66.4297 14.0249 66.4297 13.0221ZM74.8882 8.76328L74.5952 10.0136C75.3375 9.02376 76.3664 8.52886 77.6818 8.52886C78.6195 8.52886 79.3749 8.81538 79.9479 9.38843C80.534 9.96148 80.827 10.7494 80.827 11.7522C80.827 12.2081 80.7684 12.7095 80.6512 13.2565L79.3228 19H76.5683L77.9553 12.9439C78.0204 12.7095 78.053 12.4816 78.053 12.2602C78.053 11.8434 77.9227 11.5113 77.6623 11.2639C77.4148 11.0164 77.0436 10.8927 76.5487 10.8927C75.2463 10.8927 74.4324 11.596 74.1068 13.0025L72.7197 19H69.9652L72.3095 8.76328H74.8882ZM81.4613 19L83.8056 8.76328H86.5797L84.2159 19H81.4613ZM84.1768 5.85246C84.1768 5.37058 84.3461 4.96033 84.6847 4.62171C85.0234 4.27007 85.4531 4.09425 85.9741 4.09425C86.456 4.09425 86.8402 4.24402 87.1267 4.54357C87.4132 4.83009 87.5565 5.20778 87.5565 5.67664C87.5565 6.15852 87.3872 6.57528 87.0486 6.92693C86.7099 7.26555 86.2802 7.43486 85.7592 7.43486C85.2773 7.43486 84.8931 7.29159 84.6066 7.00507C84.3201 6.70552 84.1768 6.32132 84.1768 5.85246ZM91.7071 16.5385L91.1601 18.9609C90.9126 19.026 90.5349 19.0586 90.027 19.0586C89.2195 19.0586 88.5748 18.8502 88.093 18.4335C87.6111 18.0167 87.3701 17.4046 87.3701 16.5971C87.3701 16.2585 87.4222 15.8613 87.5264 15.4054L88.5423 10.9513H87.1552L87.6632 8.76328H89.0502L89.6363 6.22364H92.4104L91.8243 8.76328H93.5239L93.016 10.9513H91.3164L90.2419 15.6399C90.2028 15.7961 90.1833 15.9264 90.1833 16.0306C90.1833 16.4343 90.4698 16.6362 91.0429 16.6362L91.7071 16.5385ZM103 14.6826H95.5767C95.5897 15.3859 95.785 15.9264 96.1627 16.3041C96.5535 16.6687 97.0939 16.8511 97.7842 16.8511C98.7219 16.8511 99.4187 16.4799 99.8745 15.7375H102.688C102.31 16.7664 101.652 17.6065 100.715 18.2576C99.7768 18.9088 98.7219 19.2344 97.5498 19.2344C96.1692 19.2344 95.0557 18.8112 94.2092 17.9646C93.3626 17.105 92.9393 15.9655 92.9393 14.5459C92.9393 12.9179 93.4603 11.5113 94.5022 10.3261C95.5571 9.12795 96.9311 8.52886 98.6242 8.52886C99.9787 8.52886 101.079 8.95213 101.926 9.79868C102.785 10.6452 103.215 11.7197 103.215 13.0221C103.215 13.556 103.143 14.1096 103 14.6826ZM95.9674 12.69H100.558C100.558 12.1039 100.369 11.635 99.9917 11.2834C99.6271 10.9317 99.1061 10.7559 98.4289 10.7559C97.8558 10.7559 97.3414 10.9317 96.8856 11.2834C96.4297 11.635 96.1237 12.1039 95.9674 12.69ZM111.595 8.68514L111.009 11.2834C110.814 11.2443 110.631 11.2248 110.462 11.2248C108.821 11.2248 107.799 12.1169 107.395 13.9012L106.203 19H103.429L105.793 8.76328H108.352L108.059 10.0917C108.854 9.14098 109.928 8.66561 111.283 8.66561L111.595 8.68514Z" fill="#ECEDEF"/>
<circle cx="12.5" cy="12.5" r="12.5" fill="url(#paint0_radial)"/>
<path d="M20.688 10.361L19.124 9.60199C19.078 9.57899 19.032 9.55599 18.986 9.55599C18.181 6.79599 16.226 4.51899 12.822 4.84099C10.729 5.02499 9.763 6.81899 9.096 8.77399C9.993 9.07299 10.982 9.46399 11.833 9.90099C12.914 10.453 13.834 11.212 14.409 12.04C15.076 12.983 15.237 13.926 14.846 14.708C14.409 15.605 13.259 16.134 11.925 16.134C11.465 16.134 10.982 16.065 10.499 15.927H10.476C9.993 15.789 9.533 15.582 9.119 15.306C8.291 14.754 7.67 14.11 7.187 13.466C6.589 14.064 5.784 14.133 4.496 13.282C2.541 11.994 5.278 19.262 11.534 20.182C14.869 20.665 18.273 18.825 19.147 14.754C19.308 13.949 19.377 13.098 19.354 12.201L20.573 11.695C21.217 11.373 21.263 10.637 20.688 10.361Z" fill="#FB8F71"/>
<path d="M13.88 12.3851C13.374 11.6491 12.523 10.9591 11.534 10.4531C10.729 10.0391 9.76302 9.67113 8.88902 9.37213C7.96902 9.05013 7.16402 8.82013 6.75002 8.70513L6.63502 8.68213C6.61202 8.68213 6.56602 8.68213 6.54302 8.70513C6.52002 8.72813 6.49702 8.75113 6.49702 8.77413C6.45102 9.41813 6.47402 11.2351 7.57802 12.9141C8.01502 13.5811 8.61302 14.2251 9.44102 14.7771C9.80902 15.0071 10.2 15.1911 10.637 15.3291H10.66C12.155 15.7431 13.788 15.3521 14.225 14.4551C14.547 13.8341 14.409 13.1211 13.88 12.3851Z" fill="#FB8F71"/>
<defs>
<radialGradient id="paint0_radial" cx="0" cy="0" r="1" gradientUnits="userSpaceOnUse" gradientTransform="translate(12.5 12.5) rotate(90) scale(12.5)">
<stop stop-color="#15A1FF"/>
<stop offset="1" stop-color="#5ABAFF"/>
</radialGradient>
</defs>
</svg>
