<svg width="28" height="28" viewBox="0 0 28 28" fill="none" xmlns="http://www.w3.org/2000/svg">
<path fill-rule="evenodd" clip-rule="evenodd" d="M13.6272 0.953125C6.17149 0.953125 0.127441 6.99718 0.127441 14.4529C0.127441 21.9086 6.17149 27.9527 13.6272 27.9527C21.0829 27.9527 27.127 21.9086 27.127 14.4529C27.127 6.99718 21.0829 0.953125 13.6272 0.953125ZM5.75239 14.4309C5.75239 10.101 9.28497 6.57835 13.6271 6.57835C17.9693 6.57835 21.5019 10.101 21.5019 14.4309C21.5019 15.0443 21.4508 15.5408 21.3361 16.0393L21.3344 16.0475C21.3341 16.049 21.2772 16.2788 21.2457 16.379C21.0511 16.9997 20.6988 17.5167 20.2267 17.874C19.7689 18.2206 19.2012 18.4115 18.6284 18.4115C18.5576 18.4115 18.4863 18.4087 18.4165 18.4031C17.603 18.3379 16.8878 17.9111 16.4492 17.2304C15.6948 17.9868 14.6939 18.4029 13.6271 18.4029C11.4308 18.4029 9.64394 16.6211 9.64394 14.4309C9.64394 12.2407 11.4308 10.4589 13.6271 10.4589C15.8235 10.4589 17.6103 12.2407 17.6103 14.4309V15.7113C17.6137 16.4584 18.1164 16.7638 18.5459 16.7983C18.9732 16.8312 19.5419 16.583 19.7401 15.7728C19.8378 15.3286 19.8874 14.8769 19.8874 14.4309C19.8874 10.9887 17.0791 8.18827 13.6271 8.18827C10.1752 8.18827 7.36691 10.9887 7.36691 14.4309C7.36691 17.8731 10.1752 20.6735 13.6271 20.6735C14.8287 20.6735 15.9974 20.3313 17.0067 19.6838L17.0247 19.6722L18.0856 20.9021L18.0629 20.9177C16.7518 21.8112 15.218 22.2835 13.6271 22.2835C9.28497 22.2835 5.75239 18.7608 5.75239 14.4309Z" fill="white"/>
<path fill-rule="evenodd" clip-rule="evenodd" d="M15.9957 14.4318C15.9957 15.7342 14.9331 16.7939 13.627 16.7939C12.3209 16.7939 11.2583 15.7342 11.2583 14.4318C11.2583 13.1294 12.3209 12.0698 13.627 12.0698C14.9331 12.0698 15.9957 13.1294 15.9957 14.4318Z" fill="white"/>
</svg>
