<svg width="546" height="424" viewBox="0 0 546 424" fill="none" xmlns="http://www.w3.org/2000/svg">
<path fill-rule="evenodd" clip-rule="evenodd" d="M508.326 0H37.674C16.926 0 0 16.9163 0 37.6525V424C0 424 389.025 392.077 453.726 381.982C518.427 371.887 546 336.144 546 299.037V37.6525C546 16.9163 529.347 0 508.326 0Z" fill="#F9FAFD"/>
<rect x="93" y="63.6125" width="383" height="237.724" rx="16" fill="#5EB3FE"/>
<path d="M264.394 232.861H309.525V328.891H264.394V232.861Z" fill="#4CA8FF"/>
<path d="M117.026 82.9642H456.969C460.193 82.9642 462.879 85.5658 462.879 88.8561V274.41C462.879 277.624 460.27 280.302 456.969 280.302H117.026C113.802 280.302 111.116 277.701 111.116 274.41V88.8561C111.116 85.5658 113.725 82.9642 117.026 82.9642Z" fill="white"/>
<path d="M398.252 143.795L417.594 184.12C411.761 186.951 405.16 188.482 398.252 188.482C373.461 188.482 353.428 168.511 353.428 143.795C353.428 119.08 373.461 99.1094 398.252 99.1094C417.901 99.1094 434.557 111.735 440.621 129.257L398.252 143.795Z" fill="#004CFF"/>
<path d="M440.621 129.181C442.232 133.772 443.077 138.669 443.077 143.719C443.077 161.471 432.638 176.851 417.594 184.043L398.252 143.719L440.621 129.181Z" fill="#68B6FF"/>
<path d="M298.242 144.714H320.04V186.186H298.242V144.714Z" fill="#68B6FF"/>
<path d="M264.7 136.067H286.499V186.186H264.7V136.067Z" fill="#68B6FF"/>
<path d="M231.236 128.722H253.034V186.186H231.236V128.722Z" fill="#68B6FF"/>
<path d="M197.771 136.067H219.569V186.186H197.771V136.067Z" fill="#68B6FF"/>
<path d="M164.306 128.722H186.104V186.186H164.306V128.722Z" fill="#68B6FF"/>
<path d="M130.841 120.075H152.64V186.186H130.841V120.075Z" fill="#68B6FF"/>
<path d="M298.242 135.455H320.04V144.637H298.242V135.455Z" fill="#004CFF"/>
<path d="M264.7 125.278H286.499V136.067H264.7V125.278Z" fill="#004CFF"/>
<path d="M231.236 116.632H253.034V128.722H231.236V116.632Z" fill="#004CFF"/>
<path d="M197.771 125.278H219.569V136.067H197.771V125.278Z" fill="#004CFF"/>
<path d="M164.306 116.632H186.104V128.722H164.306V116.632Z" fill="#004CFF"/>
<path d="M130.841 106.379H152.64V120.075H130.841V106.379Z" fill="#004CFF"/>
<path d="M133.068 262.015H440.467V264.157H133.068V262.015Z" fill="#68B6FF"/>
<path d="M133.988 207.84C134.065 207.84 140.589 211.437 155.096 209.524C174.131 206.999 199.229 213.503 218.955 219.394C228.626 222.302 238.834 218.4 248.659 214.574C256.488 211.513 263.933 208.682 270.457 209.753C276.751 210.825 286.422 216.716 297.551 223.603C311.597 232.249 327.562 242.044 338.691 243.038C348.439 243.88 358.34 238.6 368.779 233.014C379.141 227.505 389.81 221.766 400.632 222.455C421.662 223.832 440.928 242.732 441.772 243.497L439.162 246.099C439.009 245.946 420.051 227.429 400.325 226.128C390.577 225.516 380.369 230.949 370.467 236.228C360.796 241.431 350.742 246.711 340.764 246.711C339.996 246.711 339.152 246.711 338.384 246.635C326.334 245.563 309.985 235.54 295.632 226.664C285.194 220.313 275.369 214.268 269.843 213.35C264.317 212.431 257.332 215.109 249.964 217.941C240.062 221.766 228.78 226.128 217.88 222.838C198.462 217.022 173.9 210.671 155.556 213.12C139.668 215.186 132.453 211.207 132.146 211.054L133.988 207.84Z" fill="#68B6FF"/>
<path opacity="0.5" d="M164.613 213.885C182.497 210.289 200.918 206.54 211.126 208.529C217.881 209.83 225.326 212.508 232.618 215.033C243.824 219.012 255.413 223.067 263.626 221.996C264.854 221.843 266.236 221.613 267.694 221.384C282.661 219.165 307.76 215.416 338.999 230.26C354.656 237.682 366.937 235.846 379.908 233.856C390.347 232.249 401.169 230.643 413.757 234.315C424.656 237.529 440.467 250.384 441.158 250.92L440.007 252.373C439.853 252.22 423.812 239.212 413.296 236.152C401.093 232.555 390.501 234.162 380.216 235.769C367.551 237.682 354.426 239.672 338.308 232.02C307.606 217.405 282.891 221.078 268.078 223.297C266.62 223.526 265.238 223.679 264.01 223.909C255.413 225.057 244.131 221.078 232.157 216.869C224.942 214.344 217.497 211.743 210.896 210.442C201.072 208.529 181.96 212.355 165.074 215.798C152.486 218.323 140.666 220.772 133.221 220.772V218.935C140.359 218.859 152.103 216.41 164.613 213.885Z" fill="#FFBDD1"/>
<path opacity="0.5" d="M149.262 235.157L197.541 250.767L229.317 246.176L255.183 254.286L277.672 240.207L351.586 256.199L399.327 248.471L440.621 256.276L440.314 258.036L399.25 250.384L351.509 258.036L278.056 242.12L255.413 256.276L229.163 248.012L197.387 252.603L149.493 237.147L133.604 247.4L132.607 245.87L149.262 235.157Z" fill="#FFBDD1"/>
<path d="M281.587 293.387H292.332C294.481 293.387 296.247 291.627 296.247 289.484C296.247 287.342 294.481 285.582 292.332 285.582H281.587C279.437 285.582 277.672 287.342 277.672 289.484C277.672 291.627 279.437 293.387 281.587 293.387Z" fill="#4CA8FF"/>
<path d="M210.819 339.909H363.099C366.169 339.909 368.625 337.461 368.625 334.4C368.625 331.339 366.169 328.891 363.099 328.891H210.819C207.749 328.891 205.293 331.339 205.293 334.4C205.293 337.384 207.749 339.909 210.819 339.909Z" fill="#68B6FF"/>
<path d="M113.572 291.933C112.215 291.933 111.116 290.837 111.116 289.484C111.116 288.132 112.215 287.036 113.572 287.036C114.928 287.036 116.028 288.132 116.028 289.484C116.028 290.837 114.928 291.933 113.572 291.933Z" fill="#4CA8FF"/>
<path opacity="0.5" d="M111.883 289.484C111.883 288.49 112.651 287.724 113.649 287.724C114.647 287.724 115.414 288.49 115.414 289.484C115.414 290.479 114.647 291.244 113.649 291.244C112.651 291.244 111.883 290.479 111.883 289.484Z" fill="#FFA7C2"/>
<path d="M119.866 289.484C119.866 288.49 120.633 287.724 121.631 287.724C122.552 287.724 123.396 288.49 123.396 289.484C123.396 290.479 122.629 291.244 121.631 291.244C120.633 291.244 119.866 290.479 119.866 289.484Z" fill="#4CA8FF"/>
<path d="M127.848 289.484C127.848 288.49 128.616 287.724 129.614 287.724C130.611 287.724 131.379 288.49 131.379 289.484C131.379 290.479 130.611 291.244 129.614 291.244C128.616 291.244 127.848 290.479 127.848 289.484Z" fill="#4CA8FF"/>
<path d="M135.907 289.484C135.907 288.49 136.675 287.724 137.673 287.724C138.594 287.724 139.438 288.49 139.438 289.484C139.438 290.479 138.67 291.244 137.673 291.244C136.675 291.244 135.907 290.479 135.907 289.484Z" fill="#4CA8FF"/>
<path d="M143.89 289.484C143.89 288.49 144.657 287.724 145.655 287.724C146.653 287.724 147.42 288.49 147.42 289.484C147.42 290.479 146.653 291.244 145.655 291.244C144.657 291.244 143.89 290.479 143.89 289.484Z" fill="#4CA8FF"/>
<path d="M309.525 304.022L264.394 309.608V298.743H309.525V304.022Z" fill="#389FFF"/>
</svg>
