<svg width="26" height="31" viewBox="0 0 26 31" fill="none" xmlns="http://www.w3.org/2000/svg">
<g clip-path="url(#clip0)">
<path d="M7.29961 29.2L7.79961 25.9H6.59961H1.09961L4.89961 1.3C4.99961 1.1 5.09961 1 5.19961 1H14.5996C17.6996 1 19.8996 1.7 20.9996 3C21.4996 3.6 21.8996 4.2 21.9996 4.9C22.1996 5.6 22.1996 6.5 21.9996 7.5V7.6V8.3L22.4996 8.6C22.9996 8.8 23.2996 9 23.5996 9.4C24.0996 9.9 24.2996 10.6 24.4996 11.3C24.5996 12.1 24.5996 13 24.3996 14.1C24.1996 15.3 23.7996 16.4 23.1996 17.3C22.6996 18.1 22.0996 18.8 21.3996 19.3C20.6996 19.8 19.8996 20.2 18.8996 20.4C17.9996 20.6 16.9996 20.8 15.7996 20.8H15.0996C14.5996 20.8 14.0996 21 13.6996 21.3C13.2996 21.6 12.9996 22.1 12.9996 22.6L12.8996 22.9L11.9996 28.8V29C11.9996 29.1 11.9996 29.1 11.8996 29.1H11.7996C11.7996 29.2 7.29961 29.2 7.29961 29.2Z" fill="#253B80"/>
<path d="M23 7.7002C23 7.8002 23 8.0002 23 8.2002C21.8 14.6002 17.5 16.7002 12.1 16.7002H9.30005C8.60005 16.7002 8.10005 17.2002 8.00005 17.8002L6.60005 26.7002L6.20005 29.2002C6.10005 29.6002 6.40005 29.9002 6.80005 30.0002H6.90005H11.8C12.4 30.0002 12.9 29.6002 13 29.0002V28.8002L13.9 23.0002L14 22.7002C14.1 22.1002 14.6 21.7002 15.2 21.7002H15.9C20.6 21.7002 24.3 19.8002 25.4 14.2002C25.9 11.9002 25.6 9.9002 24.4 8.6002C24 8.3002 23.6 7.9002 23 7.7002Z" fill="#179BD7"/>
<path d="M21.8 7.2002C21.4 7.0002 21 6.9002 20.6 6.9002C19.8 6.8002 19 6.7002 18.2 6.7002H10.8C10.2 6.7002 9.7 7.1002 9.6 7.7002L8 17.6002V17.9002C8.1 17.2002 8.7 16.8002 9.3 16.8002H12.1C17.5 16.8002 21.7 14.6002 23 8.3002C23 8.0002 23 7.8002 23 7.7002C22.7 7.5002 22.3 7.4002 22 7.3002C21.9 7.2002 21.8 7.2002 21.8 7.2002Z" fill="#222D65"/>
<path d="M9.59963 7.7C9.69963 7.1 10.1996 6.7 10.7996 6.7H18.1996C19.0996 6.7 19.8996 6.8 20.5996 6.9C21.0996 7 21.5996 7.1 22.0996 7.3C22.4996 7.4 22.7996 7.6 23.0996 7.7C23.4996 5.4 23.0996 3.8 21.7996 2.3C20.3996 0.7 17.8996 0 14.5996 0H5.19963C4.59963 0 3.99963 0.5 3.89963 1.1L-0.000371078 25.9C-0.100371 26.3 0.199629 26.8 0.699629 26.8H0.799629H6.59963L8.09963 17.6L9.59963 7.7Z" fill="#253B80"/>
</g>
<defs>
<clipPath id="clip0">
<rect width="25.6" height="30.2" fill="white"/>
</clipPath>
</defs>
</svg>
