<svg width="75" height="75" viewBox="0 0 75 75" fill="none" xmlns="http://www.w3.org/2000/svg">
<rect width="75" height="75" rx="37.5" fill="#FFE7E2"/>
<g clip-path="url(#clip0)">
<path opacity="0.3" d="M45.215 17H27.2098C24.7385 17 22.7427 18.9718 22.7427 21.4663V34.9127H46.4342C49.3527 34.9127 51.7392 37.2931 51.7392 40.239V50.2597C51.7392 53.2055 49.3527 55.6287 46.4342 55.6287H22.7568C22.8274 58.0519 24.7856 60 27.2145 60H53.5186C55.9899 60 58.0046 57.9522 58.0046 55.4577V29.919L45.215 17ZM44.3489 30.7315V20.1977L54.8131 30.7315H44.3489Z" fill="#FB9072"/>
<path d="M49.4328 40.6286C49.4328 38.7328 47.9077 37.1934 46.0295 37.1934H20.4033C18.5251 37.1934 17 38.7328 17 40.6286V49.9081C17 51.8086 18.5251 53.3481 20.4033 53.3481H46.0248C47.903 53.3481 49.4281 51.8086 49.4281 49.9128L49.4328 40.6286ZM32.3927 47.5324C31.7807 48.2831 30.9334 48.7297 29.7754 48.7297C27.2994 48.7297 26.2968 47.0857 26.2968 45.3372C26.2968 43.4652 27.4548 41.7357 29.7801 41.7357C30.6651 41.7357 31.5501 42.0778 32.2279 42.7525L31.4559 43.5507C31.0134 43.1231 30.3544 42.8855 29.7801 42.8855C28.368 42.8855 27.5113 43.9688 27.5113 45.3372C27.5113 46.43 28.1373 47.5609 29.7754 47.5609C30.2932 47.5609 30.7404 47.4468 31.2582 47.0287V45.8884H29.5636V44.7481H32.3879L32.3927 47.5324ZM34.6521 48.5967H33.4282V41.9447H34.6521V48.5967ZM40.5362 43.1801H37.0528V44.9856H40.3479V46.126H37.0528V48.5967H35.8289V41.9447H40.5362V43.1801Z" fill="#FB9072"/>
</g>
<defs>
<clipPath id="clip0">
<rect width="41" height="43" fill="white" transform="translate(17 17)"/>
</clipPath>
</defs>
</svg>
