<svg width="75" height="75" viewBox="0 0 75 75" fill="none" xmlns="http://www.w3.org/2000/svg">
<rect width="75" height="75" rx="37.5" fill="#CAEAFF"/>
<g clip-path="url(#clip0)">
<path d="M41.85 34.4001L29.5 27.2701C29.0438 27.0067 28.5263 26.8681 27.9995 26.8682C27.4727 26.8682 26.9553 27.007 26.4992 27.2706C26.0431 27.5341 25.6644 27.9131 25.4012 28.3694C25.138 28.8257 24.9997 29.3433 25 29.8701V44.1301C24.9997 44.6569 25.138 45.1744 25.4012 45.6308C25.6644 46.0871 26.0431 46.4661 26.4992 46.7296C26.9553 46.9931 27.4727 47.1319 27.9995 47.132C28.5263 47.1321 29.0438 46.9935 29.5 46.7301L41.85 39.6001C42.307 39.337 42.6865 38.9582 42.9504 38.5018C43.2144 38.0453 43.3533 37.5274 43.3533 37.0001C43.3533 36.4728 43.2144 35.9549 42.9504 35.4984C42.6865 35.042 42.307 34.6631 41.85 34.4001Z" fill="#18A0FB"/>
<path opacity="0.5" d="M51.5002 34.3999L39.1502 27.2699C38.7481 27.0378 38.2975 26.9022 37.8341 26.8738C37.3706 26.8454 36.9068 26.9249 36.4793 27.1062C36.0518 27.2875 35.6723 27.5655 35.3705 27.9184C35.0687 28.2713 34.853 28.6895 34.7402 29.1399L42.3502 33.5299C42.9587 33.8809 43.4641 34.3859 43.8154 34.9942C44.1668 35.6024 44.3518 36.2925 44.3518 36.9949C44.3518 37.6974 44.1668 38.3874 43.8154 38.9957C43.4641 39.604 42.9587 40.109 42.3502 40.4599L34.7402 44.8499C34.853 45.3004 35.0687 45.7185 35.3705 46.0714C35.6723 46.4243 36.0518 46.7024 36.4793 46.8836C36.9068 47.0649 37.3706 47.1445 37.8341 47.1161C38.2975 47.0877 38.7481 46.9521 39.1502 46.7199L51.5002 39.5999C51.9572 39.3369 52.3368 38.9581 52.6007 38.5016C52.8646 38.0451 53.0036 37.5272 53.0036 36.9999C53.0036 36.4727 52.8646 35.9547 52.6007 35.4983C52.3368 35.0418 51.9572 34.663 51.5002 34.3999Z" fill="#18A0FB"/>
</g>
<defs>
<clipPath id="clip0">
<rect width="32" height="40" fill="white" transform="translate(23 21)"/>
</clipPath>
</defs>
</svg>
