<svg width="83" height="83" viewBox="0 0 83 83" fill="none" xmlns="http://www.w3.org/2000/svg">
<rect width="83" height="83" rx="41.5" fill="#FFE7E2"/>
<g clip-path="url(#clip0)">
<path opacity="0.4" d="M56.12 25H25.88C24.296 25 23 26.296 23 27.88V30.58H59V27.88C59 26.296 57.704 25 56.12 25Z" fill="#FB9072"/>
<path d="M53.564 36.2318C54.212 37.4198 55.544 37.8158 59 37.8158V35.0798H52.916L53.564 36.2318Z" fill="#FB9072"/>
<path opacity="0.4" d="M38.192 41.3799V37.7799H41.792C45.248 37.7799 46.58 37.3839 47.228 36.1959L47.876 35.0439H23V45.4839C23 46.0959 23.18 46.6359 23.504 47.1039C23.612 47.2479 23.72 47.3919 23.864 47.5359C24.008 47.6799 24.152 47.7879 24.296 47.8959C24.512 48.0399 24.764 48.1839 25.052 48.2559C25.34 48.3279 25.592 48.3999 25.916 48.3999H32.288H38.264V41.3799H38.192Z" fill="#FB9072"/>
<path d="M59 50.344C59 48.688 59 46.96 59 45.484V41.38C55.76 41.38 52.196 41.2 50.396 37.96C48.596 41.2 45.032 41.38 41.792 41.38C41.792 41.38 41.792 46.096 41.792 50.344C41.792 54.448 42.656 56.464 44.132 57.58C44.456 57.832 44.852 58.048 45.248 58.228C48.488 59.74 50.396 60.964 50.396 60.964C50.396 60.964 52.34 59.74 55.544 58.228C56.084 57.976 56.552 57.688 56.984 57.292C57.416 56.896 57.776 56.428 58.064 55.816C58.676 54.592 59 52.864 59 50.344Z" fill="#FB9072"/>
</g>
<defs>
<clipPath id="clip0">
<rect width="46" height="57" fill="white" transform="translate(19 19)"/>
</clipPath>
</defs>
</svg>
