<svg width="27" height="22" viewBox="0 0 27 22" fill="none" xmlns="http://www.w3.org/2000/svg">
<g clip-path="url(#clip0)">
<path d="M1.27051 12.6516C1.27051 11.1892 1.27051 9.72354 1.27051 8.26108C1.27051 8.07115 1.27051 7.88122 1.27051 7.69129C1.27051 7.57733 1.27367 7.46653 1.28 7.35258C1.28316 7.27344 1.28948 7.19114 1.2958 7.112C1.29896 7.06768 1.30528 7.02336 1.30844 6.98221C1.3116 6.95372 1.31476 6.92523 1.31792 6.89674C1.3274 6.8271 1.32424 6.83976 1.3116 6.93473C1.30212 6.87458 1.33372 6.78278 1.34637 6.71947C1.36217 6.63401 1.37797 6.54854 1.39693 6.46623C1.4317 6.29846 1.47595 6.13385 1.52335 5.96925C1.5676 5.82047 1.61817 5.67169 1.6719 5.52608C1.6877 5.48492 1.7035 5.44694 1.71614 5.40895C1.7193 5.39629 1.77303 5.2665 1.73194 5.3678C1.69402 5.4691 1.74459 5.33931 1.75091 5.32665C1.77303 5.276 1.79831 5.22535 1.82044 5.1747C1.9595 4.88348 2.11752 4.60491 2.29451 4.33584C2.34192 4.2662 2.38932 4.19656 2.43673 4.13009C2.45569 4.1016 2.47782 4.07311 2.49678 4.04462C2.52523 4.00663 2.55683 3.92749 2.4873 4.05728C2.55999 3.918 2.70221 3.79138 2.80967 3.67425C3.03406 3.42734 3.27426 3.19626 3.53342 2.98417C3.55554 2.96518 3.57767 2.94935 3.59663 2.93036C3.61875 2.91453 3.64088 2.89554 3.663 2.87971C3.59031 2.93669 3.58083 2.94302 3.63455 2.90187C3.71357 2.84489 3.79258 2.78791 3.87159 2.73093C4.02013 2.62963 4.175 2.5315 4.33302 2.44287C4.49105 2.35107 4.65223 2.26877 4.81657 2.19279C4.84186 2.18013 4.86714 2.17064 4.89243 2.15797C4.91771 2.14531 4.94299 2.13581 4.96828 2.12315C5.03149 2.09466 5.01885 2.10099 4.93351 2.13898C4.99672 2.08517 5.13262 2.05984 5.20848 2.03135C5.54981 1.9079 5.90062 1.81293 6.25775 1.74646C6.33677 1.73063 6.45687 1.68948 6.53588 1.70214C6.50743 1.70531 6.48215 1.70847 6.4537 1.7148C6.48215 1.71164 6.51059 1.70847 6.53904 1.70531C6.58961 1.69897 6.64017 1.69581 6.69074 1.68948C6.88985 1.67048 7.08896 1.66415 7.28807 1.66415C7.61992 1.66415 7.93597 1.37293 7.92017 1.03105C7.90437 0.689176 7.64205 0.397949 7.28807 0.397949C5.84057 0.40428 4.38991 0.837955 3.19525 1.66732C1.99426 2.49985 1.08088 3.64576 0.52464 4.99744C0.135901 5.94709 0 6.95372 0 7.97302C0 8.82137 0 9.6729 0 10.5213C0 11.2335 0 11.9457 0 12.658C0 12.9904 0.290764 13.3069 0.632096 13.2911C0.97975 13.2689 1.27051 13.0062 1.27051 12.6516Z" fill="#6337EC"/>
<path d="M9.0232 20.1284C8.01501 20.1284 7.00682 20.1284 6.00178 20.1284C4.97463 20.1284 3.94431 20.1379 2.91715 20.1284C2.87291 20.1284 2.82866 20.1284 2.78441 20.1253C2.75597 20.1221 2.72752 20.1221 2.69908 20.1189C2.64851 20.1158 2.61691 20.0841 2.74016 20.1253C2.61375 20.0841 2.47784 20.0715 2.34827 20.0271C2.32298 20.0176 2.2977 20.005 2.26925 19.9987C2.18392 19.9733 2.41147 20.0683 2.28506 20.005C2.23449 19.9797 2.18708 19.9575 2.13651 19.929C2.08911 19.9037 2.0417 19.872 1.99429 19.8435C1.96585 19.8246 1.9374 19.7992 1.90896 19.7834C1.86155 19.7581 2.01325 19.8752 1.9058 19.7802C1.8173 19.7043 1.73197 19.6251 1.65612 19.5365C1.63716 19.5143 1.62135 19.4953 1.60239 19.4732C1.52338 19.3814 1.62768 19.5048 1.62451 19.5048C1.60555 19.508 1.50758 19.3307 1.4981 19.3149C1.46649 19.2611 1.43805 19.2073 1.4096 19.1503C1.40328 19.1408 1.37168 19.0775 1.37484 19.0743C1.37484 19.0712 1.43173 19.2263 1.39064 19.1091C1.34639 18.9825 1.30847 18.8559 1.28318 18.723C1.28002 18.6976 1.26106 18.6058 1.27686 18.7008C1.29582 18.8116 1.2737 18.6691 1.2737 18.6565C1.27054 18.5995 1.26738 18.5394 1.26738 18.4824C1.26738 18.476 1.26738 18.4697 1.26738 18.4634C1.26738 18.4191 1.26738 18.3716 1.26738 18.3273C1.26738 18.1278 1.26738 17.9284 1.26738 17.729C1.26738 16.3425 1.26738 14.9528 1.26738 13.5663C1.26738 13.1738 1.26738 12.7781 1.26738 12.3856C1.26738 12.3793 1.26738 12.3698 1.26738 12.3634C1.26738 12.3255 1.26738 12.2906 1.27054 12.2526C1.2737 12.2178 1.27686 12.1798 1.27686 12.145C1.28318 12.0247 1.2579 12.2432 1.2737 12.164C1.29898 12.0469 1.32111 11.9298 1.35903 11.8126C1.36852 11.7873 1.378 11.7588 1.38748 11.7335C1.43173 11.6006 1.33375 11.8253 1.38116 11.7493C1.41592 11.6892 1.44121 11.6227 1.47597 11.5626C1.50758 11.5088 1.53918 11.4549 1.57395 11.4043C1.58027 11.3948 1.61819 11.3378 1.62135 11.3378C1.61819 11.3378 1.53602 11.4391 1.59923 11.3695C1.68456 11.2713 1.77306 11.1764 1.87103 11.0877C1.88683 11.0751 1.93424 11.0213 1.95004 11.0213C1.95004 11.0213 1.82046 11.1131 1.9216 11.0466C1.96901 11.0149 2.01325 10.9833 2.06066 10.9548C2.11439 10.9231 2.16812 10.8915 2.22501 10.8662C2.23765 10.8598 2.31034 10.8155 2.31982 10.8218C2.30718 10.8123 2.18076 10.8725 2.30402 10.8313C2.4178 10.7933 2.53157 10.7585 2.64851 10.7364C2.66115 10.7332 2.80337 10.7079 2.69276 10.7269C2.59794 10.7427 2.6896 10.7269 2.71488 10.7269C2.78125 10.7205 2.84446 10.7174 2.91083 10.7174C2.93611 10.7174 2.95824 10.7174 2.98352 10.7174C3.14787 10.7174 3.31221 10.7174 3.47972 10.7174C4.1213 10.7174 4.76287 10.7174 5.40129 10.7174C6.58331 10.7174 7.76533 10.7174 8.94735 10.7174C8.97264 10.7174 8.99792 10.7174 9.0232 10.7174C9.06745 10.7174 9.1117 10.7174 9.15594 10.7205C9.18439 10.7237 9.21283 10.7269 9.24128 10.7269C9.38666 10.7364 9.13066 10.7047 9.22231 10.7237C9.35505 10.7522 9.48463 10.7775 9.61105 10.825C9.62053 10.8282 9.69007 10.8503 9.69007 10.8535C9.69007 10.8567 9.54468 10.7839 9.6553 10.8377C9.71219 10.8662 9.76592 10.8915 9.8228 10.9231C9.87653 10.9548 9.93026 10.9864 9.98083 11.0213C9.99031 11.0276 10.0504 11.0656 10.0472 11.0687C10.0504 11.0498 9.93342 10.9738 10.0472 11.0719C10.1357 11.1479 10.2179 11.2302 10.2969 11.3188C10.3158 11.341 10.3316 11.3631 10.3506 11.3821C10.4107 11.4486 10.2653 11.2523 10.338 11.3695C10.3759 11.4265 10.4138 11.4834 10.4486 11.5436C10.477 11.5911 10.5023 11.6417 10.5276 11.6892C10.5276 11.686 10.5655 11.7588 10.5624 11.7652C10.575 11.7462 10.515 11.6322 10.5529 11.7493C10.5971 11.8791 10.6287 12.0057 10.6572 12.1387C10.6793 12.2368 10.6572 12.1007 10.654 12.0975C10.6603 12.1007 10.6635 12.1862 10.6635 12.183C10.6667 12.24 10.6698 12.3001 10.6698 12.3571C10.6698 12.3634 10.6698 12.3698 10.6698 12.3793C10.6698 12.5091 10.6698 12.6388 10.6698 12.7718C10.6698 14.114 10.6698 15.4561 10.6698 16.7952C10.6698 17.3016 10.6698 17.8081 10.6698 18.3146C10.6698 18.3621 10.6698 18.4064 10.6698 18.4539C10.6698 18.4602 10.6698 18.4665 10.6698 18.476C10.6698 18.5204 10.6698 18.5647 10.6667 18.609C10.6635 18.6375 10.6635 18.666 10.6603 18.6945C10.6509 18.8432 10.6888 18.552 10.6603 18.6976C10.635 18.8148 10.6098 18.9319 10.5718 19.0458C10.5687 19.0585 10.5466 19.1408 10.5339 19.144C10.5339 19.144 10.6034 18.9984 10.5497 19.1091C10.5181 19.1725 10.4897 19.2326 10.4549 19.2927C10.4265 19.3402 10.398 19.3877 10.3664 19.432C10.3506 19.4574 10.3127 19.5523 10.3443 19.4668C10.3696 19.394 10.3538 19.4542 10.3285 19.4827C10.2431 19.5808 10.1547 19.6758 10.0535 19.7612C10.0535 19.7612 9.99979 19.8151 9.99031 19.8151C10.0124 19.8151 10.0946 19.7422 10.0188 19.7897C9.96503 19.8246 9.91762 19.8594 9.86389 19.891C9.81016 19.9227 9.75643 19.9512 9.69955 19.9797C9.6869 19.986 9.63002 20.0176 9.62369 20.0145C9.62685 20.0176 9.75011 19.967 9.65846 19.9987C9.53836 20.0398 9.41826 20.0778 9.29184 20.1031C9.26656 20.1094 9.23179 20.1094 9.20651 20.1189C9.32977 20.0778 9.29817 20.1094 9.2476 20.1126C9.16859 20.1253 9.09589 20.1284 9.0232 20.1284C8.69135 20.1316 8.3753 20.4165 8.39111 20.7615C8.40691 21.1003 8.66923 21.3978 9.0232 21.3946C10.3 21.382 11.4378 20.5336 11.8107 19.3086C11.9561 18.8337 11.9308 18.3368 11.9308 17.8461C11.9308 16.4248 11.9308 15.0035 11.9308 13.579C11.9308 13.1801 11.934 12.7781 11.9308 12.3793C11.9245 11.2903 11.3051 10.2267 10.3127 9.75506C9.8955 9.55563 9.45935 9.45117 8.99476 9.45117C8.84938 9.45117 8.70716 9.45117 8.56177 9.45117C7.92968 9.45117 7.29442 9.45117 6.66232 9.45117C5.43606 9.45117 4.20979 9.45117 2.98668 9.45117C1.98165 9.45117 1.07459 9.92283 0.502543 10.7522C0.0948412 11.3315 0.00634766 11.9994 0.00634766 12.68C0.00634766 14.038 0.00634766 15.3992 0.00634766 16.7572C0.00634766 17.2826 0.00634766 17.8081 0.00634766 18.3304C0.00634766 19.1756 0.278149 19.986 0.903925 20.5811C1.38432 21.0369 1.97849 21.2997 2.62955 21.3757C2.78757 21.3946 2.9456 21.3946 3.10678 21.3946C3.65038 21.3946 4.19083 21.3946 4.73443 21.3946C6.07763 21.3946 7.42084 21.3946 8.76088 21.3946C8.84622 21.3946 8.93471 21.3946 9.02004 21.3946C9.35189 21.3946 9.66794 21.1034 9.65214 20.7615C9.6395 20.4197 9.37718 20.1284 9.0232 20.1284Z" fill="#06AE6E"/>
<path d="M16.3364 12.6516C16.3364 11.1892 16.3364 9.72354 16.3364 8.26108C16.3364 8.07115 16.3364 7.88122 16.3364 7.69129C16.3364 7.57733 16.3396 7.46654 16.3459 7.35258C16.3491 7.27344 16.3554 7.19114 16.3617 7.112C16.3649 7.06768 16.3712 7.02336 16.3744 6.98221C16.3775 6.95372 16.3807 6.92523 16.3838 6.89674C16.3933 6.8271 16.3902 6.83976 16.3775 6.93473C16.368 6.87458 16.3996 6.78278 16.4123 6.71947C16.4281 6.63401 16.4439 6.54854 16.4629 6.46623C16.4976 6.29846 16.5419 6.13386 16.5893 5.96925C16.6335 5.82047 16.6841 5.67169 16.7378 5.52608C16.7536 5.48493 16.7694 5.44694 16.7821 5.40895C16.7852 5.39629 16.8389 5.26651 16.7979 5.3678C16.7599 5.4691 16.8105 5.33931 16.8168 5.32665C16.8389 5.276 16.8642 5.22535 16.8864 5.17471C17.0254 4.88348 17.1834 4.60491 17.3604 4.33584C17.4078 4.2662 17.4552 4.19656 17.5026 4.13009C17.5216 4.1016 17.5437 4.07311 17.5627 4.04462C17.5911 4.00663 17.6227 3.92749 17.5532 4.05728C17.6259 3.918 17.7681 3.79138 17.8756 3.67425C18.1 3.42734 18.3402 3.19626 18.5993 2.98417C18.6215 2.96518 18.6436 2.94935 18.6625 2.93036C18.6847 2.91453 18.7068 2.89554 18.7289 2.87971C18.6562 2.93669 18.6467 2.94302 18.7005 2.90187C18.7795 2.84489 18.8585 2.78791 18.9375 2.73093C19.086 2.62963 19.2409 2.5315 19.3989 2.44287C19.557 2.35107 19.7181 2.26877 19.8825 2.19279C19.9078 2.18013 19.9331 2.17064 19.9583 2.15797C19.9836 2.14531 20.0089 2.13581 20.0342 2.12315C20.0974 2.09466 20.0848 2.10099 19.9994 2.13898C20.0626 2.08517 20.1985 2.05984 20.2744 2.03135C20.6157 1.9079 20.9665 1.81293 21.3237 1.74646C21.4027 1.73063 21.5228 1.68948 21.6018 1.70214C21.5733 1.70531 21.5481 1.70847 21.5196 1.7148C21.5481 1.71164 21.5765 1.70847 21.605 1.70531C21.6555 1.69897 21.7061 1.69581 21.7567 1.68948C21.9558 1.67048 22.1549 1.66415 22.354 1.66415C22.6858 1.66415 23.0019 1.37293 22.9861 1.03105C22.9703 0.689176 22.708 0.397949 22.354 0.397949C20.9065 0.40428 19.4558 0.837955 18.2612 1.66732C17.0602 2.49985 16.1468 3.64576 15.5906 4.99744C15.2018 5.94709 15.0659 6.95372 15.0659 7.97302C15.0659 8.82137 15.0659 9.6729 15.0659 10.5213C15.0659 11.2335 15.0659 11.9457 15.0659 12.658C15.0659 12.9904 15.3567 13.3069 15.698 13.2911C16.0488 13.2689 16.3364 13.0062 16.3364 12.6516Z" fill="#06AE6E"/>
<path d="M24.0892 20.1284C23.081 20.1284 22.0728 20.1284 21.0677 20.1284C20.0406 20.1284 19.0103 20.1379 17.9831 20.1284C17.9389 20.1284 17.8946 20.1284 17.8504 20.1253C17.8219 20.1221 17.7935 20.1221 17.765 20.1189C17.7145 20.1158 17.6829 20.0841 17.8061 20.1253C17.6797 20.0841 17.5438 20.0715 17.4142 20.0271C17.3889 20.0176 17.3636 20.005 17.3352 19.9987C17.2499 19.9733 17.4774 20.0683 17.351 20.005C17.3004 19.9797 17.253 19.9575 17.2025 19.929C17.1551 19.9037 17.1076 19.872 17.0602 19.8435C17.0318 19.8246 17.0033 19.7992 16.9749 19.7834C16.9275 19.7581 17.0792 19.8752 16.9717 19.7802C16.8832 19.7043 16.7979 19.6251 16.7221 19.5365C16.7031 19.5143 16.6873 19.4953 16.6683 19.4732C16.5893 19.3814 16.6936 19.5048 16.6905 19.5048C16.6715 19.508 16.5735 19.3307 16.564 19.3149C16.5324 19.2611 16.504 19.2073 16.4755 19.1503C16.4692 19.1408 16.4376 19.0775 16.4408 19.0743C16.4408 19.0712 16.4977 19.2263 16.4566 19.1091C16.4123 18.9825 16.3744 18.8559 16.3491 18.723C16.346 18.6976 16.327 18.6058 16.3428 18.7008C16.3618 18.8116 16.3396 18.6691 16.3396 18.6565C16.3365 18.5995 16.3333 18.5394 16.3333 18.4824C16.3333 18.476 16.3333 18.4697 16.3333 18.4634C16.3333 18.4191 16.3333 18.3716 16.3333 18.3273C16.3333 18.1278 16.3333 17.9284 16.3333 17.729C16.3333 16.3425 16.3333 14.9528 16.3333 13.5663C16.3333 13.1738 16.3333 12.7781 16.3333 12.3856C16.3333 12.3793 16.3333 12.3698 16.3333 12.3634C16.3333 12.3255 16.3333 12.2906 16.3365 12.2526C16.3396 12.2178 16.3428 12.1798 16.3428 12.145C16.3491 12.0247 16.3238 12.2432 16.3396 12.164C16.3649 12.0469 16.3871 11.9298 16.425 11.8126C16.4345 11.7873 16.4439 11.7588 16.4534 11.7335C16.4977 11.6006 16.3997 11.8253 16.4471 11.7493C16.4819 11.6892 16.5072 11.6227 16.5419 11.5626C16.5735 11.5088 16.6051 11.4549 16.6399 11.4043C16.6462 11.3948 16.6841 11.3378 16.6873 11.3378C16.6841 11.3378 16.602 11.4391 16.6652 11.3695C16.7505 11.2713 16.839 11.1764 16.937 11.0877C16.9528 11.0751 17.0002 11.0213 17.016 11.0213C17.016 11.0213 16.8864 11.1131 16.9875 11.0466C17.035 11.0149 17.0792 10.9833 17.1266 10.9548C17.1803 10.9231 17.2341 10.8915 17.291 10.8662C17.3036 10.8598 17.3763 10.8155 17.3858 10.8218C17.3731 10.8123 17.2467 10.8725 17.37 10.8313C17.4837 10.7933 17.5975 10.7585 17.7145 10.7364C17.7271 10.7332 17.8693 10.7079 17.7587 10.7269C17.6639 10.7427 17.7555 10.7269 17.7808 10.7269C17.8472 10.7205 17.9104 10.7174 17.9768 10.7174C18.0021 10.7174 18.0242 10.7174 18.0495 10.7174C18.2138 10.7174 18.3782 10.7174 18.5457 10.7174C19.1872 10.7174 19.8288 10.7174 20.4672 10.7174C21.6493 10.7174 22.8313 10.7174 24.0133 10.7174C24.0386 10.7174 24.0639 10.7174 24.0892 10.7174C24.1334 10.7174 24.1776 10.7174 24.2219 10.7205C24.2503 10.7237 24.2788 10.7269 24.3072 10.7269C24.4526 10.7364 24.1966 10.7047 24.2883 10.7237C24.421 10.7522 24.5506 10.7775 24.677 10.825C24.6865 10.8282 24.756 10.8503 24.756 10.8535C24.756 10.8567 24.6106 10.7839 24.7212 10.8377C24.7781 10.8662 24.8319 10.8915 24.8888 10.9231C24.9425 10.9548 24.9962 10.9864 25.0468 11.0213C25.0563 11.0276 25.1163 11.0656 25.1131 11.0687C25.1163 11.0498 24.9994 10.9738 25.1131 11.0719C25.2016 11.1479 25.2838 11.2302 25.3628 11.3188C25.3818 11.341 25.3976 11.3631 25.4166 11.3821C25.4766 11.4486 25.3312 11.2523 25.4039 11.3695C25.4418 11.4265 25.4798 11.4834 25.5145 11.5436C25.543 11.5911 25.5683 11.6417 25.5935 11.6892C25.5935 11.686 25.6315 11.7588 25.6283 11.7652C25.6409 11.7462 25.5809 11.6322 25.6188 11.7493C25.6631 11.8791 25.6947 12.0057 25.7231 12.1387C25.7452 12.2368 25.7231 12.1007 25.72 12.0975C25.7263 12.1007 25.7294 12.1862 25.7294 12.183C25.7326 12.24 25.7358 12.3001 25.7358 12.3571C25.7358 12.3634 25.7358 12.3698 25.7358 12.3793C25.7358 12.5091 25.7358 12.6388 25.7358 12.7718C25.7358 14.114 25.7358 15.4561 25.7358 16.7952C25.7358 17.3016 25.7358 17.8081 25.7358 18.3146C25.7358 18.3621 25.7358 18.4064 25.7358 18.4539C25.7358 18.4602 25.7358 18.4665 25.7358 18.476C25.7358 18.5204 25.7358 18.5647 25.7326 18.609C25.7294 18.6375 25.7294 18.666 25.7263 18.6945C25.7168 18.8432 25.7547 18.552 25.7263 18.6976C25.701 18.8148 25.6757 18.9319 25.6378 19.0458C25.6346 19.0585 25.6125 19.1408 25.5999 19.144C25.5999 19.144 25.6694 18.9984 25.6157 19.1091C25.5841 19.1725 25.5556 19.2326 25.5208 19.2927C25.4924 19.3402 25.464 19.3877 25.4324 19.432C25.4166 19.4574 25.3786 19.5523 25.4102 19.4669C25.4355 19.394 25.4197 19.4542 25.3944 19.4827C25.3091 19.5808 25.2206 19.6758 25.1195 19.7612C25.1195 19.7612 25.0657 19.8151 25.0563 19.8151C25.0784 19.8151 25.1606 19.7422 25.0847 19.7897C25.031 19.8246 24.9836 19.8594 24.9298 19.891C24.8761 19.9227 24.8224 19.9512 24.7655 19.9797C24.7529 19.986 24.696 20.0176 24.6896 20.0145C24.6928 20.0176 24.8161 19.967 24.7244 19.9987C24.6043 20.0398 24.4842 20.0778 24.3578 20.1031C24.3325 20.1094 24.2977 20.1094 24.2725 20.1189C24.3957 20.0778 24.3641 20.1094 24.3135 20.1126C24.2345 20.1253 24.1618 20.1284 24.0892 20.1284C23.7573 20.1316 23.4413 20.4165 23.4571 20.7615C23.4729 21.1003 23.7352 21.3978 24.0892 21.3946C25.366 21.382 26.5038 20.5336 26.8767 19.3086C27.0221 18.8337 26.9968 18.3368 26.9968 17.8461C26.9968 16.4248 26.9968 15.0035 26.9968 13.579C26.9968 13.1801 27 12.7781 26.9968 12.3793C26.9905 11.2903 26.371 10.2267 25.3786 9.75506C24.9614 9.55563 24.5253 9.45117 24.0607 9.45117C23.9153 9.45117 23.7731 9.45117 23.6277 9.45117C22.9956 9.45117 22.3604 9.45117 21.7283 9.45117C20.502 9.45117 19.2757 9.45117 18.0526 9.45117C17.0476 9.45117 16.1405 9.92283 15.5685 10.7522C15.1671 11.3315 15.0786 11.9994 15.0786 12.6832C15.0786 14.0412 15.0786 15.4023 15.0786 16.7603C15.0786 17.2858 15.0786 17.8113 15.0786 18.3336C15.0786 19.1788 15.3504 19.9892 15.9762 20.5843C16.4566 21.0401 17.0508 21.3028 17.7018 21.3788C17.8598 21.3978 18.0179 21.3978 18.179 21.3978C18.7227 21.3978 19.2631 21.3978 19.8067 21.3978C21.1499 21.3978 22.4931 21.3978 23.8331 21.3978C23.9185 21.3978 24.007 21.3978 24.0923 21.3978C24.4242 21.3978 24.7402 21.1066 24.7244 20.7647C24.7054 20.4197 24.4431 20.1284 24.0892 20.1284Z" fill="#6337EC"/>
</g>
<defs>
<clipPath id="clip0">
<rect width="27" height="21" fill="white" transform="translate(0 0.397949)"/>
</clipPath>
</defs>
</svg>
