<svg width="75" height="75" viewBox="0 0 75 75" fill="none" xmlns="http://www.w3.org/2000/svg">
<rect width="75" height="75" rx="37.5" fill="#FFE7E2"/>
<path opacity="0.5" d="M27.4231 47.4645C29.0319 49.1687 31.1509 50 33.2306 50C35.3495 50 37.4684 49.1687 39.038 47.4645L40.4114 46.0098C41.1962 45.1785 41.1962 43.89 40.4114 43.0587C39.6266 42.2274 38.4102 42.2274 37.6254 43.0587L36.252 44.5134C34.5647 46.3007 31.818 46.3007 30.1307 44.5134C28.4434 42.7262 28.4434 39.8166 30.1307 38.0293L31.504 36.5746C32.2888 35.7433 32.2888 34.4548 31.504 33.6235C30.7192 32.7922 29.5028 32.7922 28.718 33.6235L27.3447 35.0782C24.2055 38.5281 24.2055 44.0978 27.4231 47.4645Z" fill="#FB9072"/>
<path opacity="0.34" d="M43.467 37.6233C42.6846 38.4086 42.6846 39.6258 43.467 40.411C43.8582 40.8037 44.3667 41 44.8362 41C45.3056 41 45.8533 40.8037 46.2054 40.411L47.5746 39.0368C49.1394 37.4663 50 35.4245 50 33.2258C50 31.027 49.1394 28.946 47.5746 27.4147C44.3667 24.1951 39.1638 24.1951 35.956 27.4147L34.5868 28.789C33.8044 29.5742 33.8044 30.7914 34.5868 31.5767C35.3692 32.362 36.5819 32.362 37.3643 31.5767L38.7335 30.2025C40.4156 28.5141 43.154 28.5141 44.8362 30.2025C45.6577 31.027 46.088 32.0871 46.088 33.265C46.088 34.4037 45.6577 35.5031 44.8362 36.3276L43.467 37.6233Z" fill="#FB9072"/>
<path d="M37.8075 33.5346L33.5634 37.7737C32.8122 38.524 32.8122 39.687 33.5634 40.4373C33.939 40.8124 34.4272 41 34.8779 41C35.3662 41 35.8545 40.8124 36.1925 40.4373L40.4366 36.1981C41.1878 35.4478 41.1878 34.2849 40.4366 33.5346C39.723 32.8218 38.5587 32.8218 37.8075 33.5346Z" fill="#FB9072"/>
</svg>
