<svg width="148" height="144" viewBox="0 0 148 144" fill="none" xmlns="http://www.w3.org/2000/svg">
<path d="M64.4766 144C99.5466 144 127.977 115.57 127.977 80.5C127.977 45.4299 99.5466 17 64.4766 17C29.4065 17 0.976562 45.4299 0.976562 80.5C0.976562 115.57 29.4065 144 64.4766 144Z" fill="#B6EFD3"/>
<path d="M62.8758 106L30.6487 73.3604C28.4192 71.1023 28.4192 67.5099 30.6487 65.3544C32.8783 63.0963 36.4253 63.0963 38.5535 65.3544L62.369 89.4749L138.173 1.92264C140.2 -0.438093 143.747 -0.643374 146.078 1.40943C148.409 3.46224 148.612 7.05466 146.585 9.41539L62.8758 106Z" fill="#32BE87"/>
</svg>
