<svg width="83" height="83" viewBox="0 0 83 83" fill="none" xmlns="http://www.w3.org/2000/svg">
<rect width="83" height="83" rx="41.5" fill="#CAEAFF"/>
<path d="M60.7186 45.91C60.7186 44.975 59.9498 44.2101 59.0102 44.2101H54.3977H54.3123C53.1165 47.355 51.8352 50.2451 50.4686 51.5201C48.8457 52.965 46.7102 53.73 44.4894 53.73C42.2686 53.73 40.1332 52.965 38.5102 51.5201C36.8873 50.0751 35.9477 48.035 35.9477 45.91C35.9477 43.785 36.8873 41.83 38.5102 40.3C40.1332 38.855 44.2332 37.495 48.4186 36.39V34.35C48.4186 29.42 43.4644 25.425 37.3144 25.425C33.8977 25.425 30.7373 26.615 28.6019 28.74C26.979 30.355 26.1248 32.31 26.2102 34.35C26.2102 34.605 26.2102 35.03 26.2102 35.37L24.7582 34.605C23.904 34.18 22.9644 34.52 22.5373 35.285C22.1102 36.135 22.4519 37.07 23.2207 37.495L24.4165 38.26L23.1352 38.94C22.2811 39.365 22.0248 40.385 22.4519 41.15C22.7936 41.745 23.3061 42 23.904 42C24.1602 42 24.4165 41.915 24.6727 41.83L26.2102 40.98C26.2957 43.87 26.2957 46.42 26.2957 46.505C26.6373 51.775 30.6519 56.195 36.3748 58.2351V60.955L35.0082 62.57C34.4102 63.25 34.4957 64.355 35.2644 64.9501C35.6061 65.2051 35.9477 65.2901 36.2894 65.2901C36.8019 65.2901 37.229 65.1201 37.5707 64.695L39.279 62.57C39.5352 62.23 39.6207 61.89 39.6207 61.55V59.085C40.8165 59.255 42.0123 59.425 43.2936 59.425V60.955L41.9269 62.57C41.329 63.25 41.4144 64.355 42.1832 64.9501C42.5248 65.2051 42.8665 65.2901 43.2082 65.2901C43.7207 65.2901 44.1477 65.1201 44.4894 64.695L46.1977 62.57C46.454 62.3151 46.5394 61.89 46.5394 61.55V59.1701C54.7394 58.0651 60.7186 52.5401 60.7186 45.91ZM32.2748 34.69C31.3352 34.69 30.5665 33.925 30.5665 32.99C30.5665 32.055 31.3352 31.29 32.2748 31.29C33.2144 31.29 33.9832 32.055 33.9832 32.99C33.9832 33.925 33.2144 34.69 32.2748 34.69Z" fill="#18A0FB"/>
<path opacity="0.45" d="M39.2788 45.9101C39.2788 47.1001 39.7913 48.2051 40.7309 49.0551C41.7559 49.9051 43.0371 50.4151 44.4892 50.4151C45.9413 50.4151 47.2226 49.9051 48.2476 49.0551C49.358 48.0351 51.0663 44.0401 52.6892 38.6851C46.5392 40.1301 41.9267 41.7451 40.8163 42.7651C39.7913 43.6151 39.2788 44.7201 39.2788 45.9101Z" fill="#18A0FB"/>
</svg>
