<svg width="28" height="28" viewBox="0 0 28 28" fill="none" xmlns="http://www.w3.org/2000/svg">
<g opacity="0.9">
<path fill-rule="evenodd" clip-rule="evenodd" d="M13.9495 0.953125C6.49376 0.953125 0.449707 6.99718 0.449707 14.4529C0.449707 21.9086 6.49376 27.9527 13.9495 27.9527C21.4052 27.9527 27.4492 21.9086 27.4492 14.4529C27.4492 6.99718 21.4052 0.953125 13.9495 0.953125ZM13.5736 12.3934L13.5452 11.9263C13.4602 10.7156 14.2062 9.60972 15.3866 9.18073C15.8209 9.0282 16.5575 9.00913 17.0391 9.14259C17.2279 9.19979 17.5868 9.39045 17.8417 9.56205L18.3044 9.87664L18.8143 9.71458C19.0976 9.62878 19.4753 9.48579 19.6453 9.39045C19.8058 9.30466 19.9475 9.25699 19.9475 9.28559C19.9475 9.44765 19.5981 10.0006 19.3053 10.3056C18.9087 10.7346 19.0221 10.7728 19.8247 10.4868C20.3063 10.3247 20.3157 10.3247 20.2213 10.5058C20.1646 10.6012 19.8719 10.9348 19.5603 11.2399C19.0315 11.7642 19.0032 11.8214 19.0032 12.2599C19.0032 12.9368 18.6821 14.3477 18.3611 15.1199C17.7662 16.5689 16.4914 18.0656 15.2166 18.8187C13.4225 19.8769 11.0334 20.1438 9.02212 19.5241C8.35169 19.3144 7.19966 18.7806 7.19966 18.6852C7.19966 18.6566 7.54905 18.6185 7.97397 18.609C8.8616 18.5899 9.74922 18.342 10.5046 17.9035L11.0146 17.5985L10.4291 17.3983C9.59814 17.1123 8.85215 16.4545 8.6633 15.8348C8.60664 15.6346 8.62553 15.6251 9.15432 15.6251L9.70201 15.6156L9.23931 15.3963C8.69163 15.1199 8.19116 14.6527 7.94564 14.1761C7.76623 13.8329 7.5396 12.9654 7.6057 12.8986C7.62459 12.87 7.82289 12.9272 8.04952 13.0035C8.70107 13.2418 8.78605 13.1846 8.40834 12.7842C7.70013 12.0597 7.48295 10.9825 7.82289 9.96244L7.98342 9.50485L8.60664 10.1245C9.88142 11.3733 11.3828 12.1169 13.1014 12.3362L13.5736 12.3934Z" fill="white"/>
</g>
</svg>
