<svg width="721" height="460" viewBox="0 0 721 460" fill="none" xmlns="http://www.w3.org/2000/svg">
<path fill-rule="evenodd" clip-rule="evenodd" d="M524.326 36H53.674C32.926 36 16 52.9163 16 73.6525V460C16 460 405.025 428.077 469.726 417.982C534.427 407.887 562 372.144 562 335.037V73.6525C562 52.9163 545.347 36 524.326 36Z" fill="#F9FAFD"/>
<rect x="109" y="99.6125" width="383" height="237.724" rx="16" fill="#5EB3FE"/>
<path d="M280.395 268.862H325.526V364.891H280.395V268.862Z" fill="#4CA8FF"/>
<path d="M133.027 118.964H472.97C476.194 118.964 478.88 121.566 478.88 124.856V310.41C478.88 313.624 476.271 316.302 472.97 316.302H133.027C129.803 316.302 127.117 313.701 127.117 310.41V124.856C127.117 121.566 129.726 118.964 133.027 118.964Z" fill="white"/>
<path d="M297.588 329.387H308.333C310.482 329.387 312.248 327.627 312.248 325.484C312.248 323.342 310.482 321.582 308.333 321.582H297.588C295.438 321.582 293.673 323.342 293.673 325.484C293.673 327.627 295.438 329.387 297.588 329.387Z" fill="#4CA8FF"/>
<path d="M226.82 375.909H379.1C382.17 375.909 384.626 373.461 384.626 370.4C384.626 367.339 382.17 364.891 379.1 364.891H226.82C223.75 364.891 221.294 367.339 221.294 370.4C221.294 373.384 223.75 375.909 226.82 375.909Z" fill="#68B6FF"/>
<path d="M129.573 327.933C128.216 327.933 127.117 326.837 127.117 325.484C127.117 324.132 128.216 323.036 129.573 323.036C130.929 323.036 132.029 324.132 132.029 325.484C132.029 326.837 130.929 327.933 129.573 327.933Z" fill="#4CA8FF"/>
<path opacity="0.5" d="M127.884 325.484C127.884 324.49 128.652 323.724 129.65 323.724C130.648 323.724 131.415 324.49 131.415 325.484C131.415 326.479 130.648 327.244 129.65 327.244C128.652 327.244 127.884 326.479 127.884 325.484Z" fill="#FFA7C2"/>
<path d="M135.867 325.484C135.867 324.49 136.634 323.724 137.632 323.724C138.553 323.724 139.397 324.49 139.397 325.484C139.397 326.479 138.63 327.244 137.632 327.244C136.634 327.244 135.867 326.479 135.867 325.484Z" fill="#4CA8FF"/>
<path d="M143.849 325.484C143.849 324.49 144.617 323.724 145.615 323.724C146.612 323.724 147.38 324.49 147.38 325.484C147.38 326.479 146.612 327.244 145.615 327.244C144.617 327.244 143.849 326.479 143.849 325.484Z" fill="#4CA8FF"/>
<path d="M151.908 325.484C151.908 324.49 152.676 323.724 153.674 323.724C154.595 323.724 155.439 324.49 155.439 325.484C155.439 326.479 154.671 327.244 153.674 327.244C152.676 327.244 151.908 326.479 151.908 325.484Z" fill="#4CA8FF"/>
<path d="M159.891 325.484C159.891 324.49 160.658 323.724 161.656 323.724C162.654 323.724 163.421 324.49 163.421 325.484C163.421 326.479 162.654 327.244 161.656 327.244C160.658 327.244 159.891 326.479 159.891 325.484Z" fill="#4CA8FF"/>
<path d="M325.526 340.023L280.395 345.608V334.743H325.526V340.023Z" fill="#389FFF"/>
<path d="M292.095 423.006H287.831C285.841 423.006 284.278 421.445 284.278 419.458V407.392H292.095L295.222 418.89C295.72 420.593 294.654 422.439 292.948 422.864C292.664 422.935 292.38 423.006 292.095 423.006Z" fill="#605D82"/>
<path d="M291.101 173.035C264.308 173.035 242.631 194.682 242.631 221.44C242.631 248.197 264.308 269.844 291.101 269.844C317.894 269.844 339.57 248.197 339.57 221.44C339.57 194.682 317.894 173.035 291.101 173.035ZM281.435 243.229V199.65L310.503 221.44L281.435 243.229Z" fill="#5EB3FE"/>
<path d="M272.267 305.686C272.267 305.686 263.597 335.921 263.17 349.122C262.744 362.323 261.251 383.545 262.389 388.797C263.526 394.049 266.937 404.695 266.937 404.695C266.937 404.695 274.115 396.036 276.745 400.933C276.745 400.933 276.389 390.713 274.47 387.732C274.47 387.732 275.252 371.834 275.252 366.156C275.252 360.478 284.704 334.431 285.486 334.005C286.268 333.579 288.542 341.173 286.623 357.852C284.704 374.531 283.212 403.63 283.212 406.611C283.212 409.592 287.76 415.696 290.816 413.78C293.872 411.863 295.72 395.61 295.72 395.61C295.72 395.61 298.35 361.614 299.913 357.781C301.477 353.948 309.365 310.512 303.325 307.105C297.284 303.699 272.267 305.686 272.267 305.686Z" fill="#46455B"/>
<path d="M278.734 403.985C278.379 405.476 276.815 412.644 276.815 414.915C276.815 417.186 278.308 421.374 271.912 422.864C265.657 424.355 266.581 420.451 265.586 418.109C265.586 418.038 265.515 417.967 265.515 417.896C264.378 415.625 267.008 403.914 267.434 403.914C267.647 403.914 269.424 400.933 270.917 398.449C271.983 396.533 274.47 395.823 276.389 396.959C276.673 397.101 276.886 397.314 277.171 397.527C278.379 398.662 279.09 400.295 279.019 401.998C278.947 402.637 278.876 403.346 278.734 403.985Z" fill="#605D82"/>
<path opacity="0.1" d="M278.735 403.985C278.379 405.476 276.816 412.644 276.816 414.915C276.816 417.186 278.308 421.374 271.912 422.864C265.658 424.355 266.582 420.451 265.587 418.109C266.653 415.27 269.283 409.237 271.201 403.914C272.836 399.23 276.887 400.791 279.019 401.927C278.948 402.637 278.877 403.346 278.735 403.985Z" fill="black"/>
<path d="M289.68 247.132C294.076 247.132 297.639 243.573 297.639 239.183C297.639 234.793 294.076 231.234 289.68 231.234C285.283 231.234 281.72 234.793 281.72 239.183C281.72 243.573 285.283 247.132 289.68 247.132Z" fill="#FBBEBE"/>
<path d="M283.212 240.674L282.075 253.165L295.72 255.436C295.72 255.436 294.228 244.506 295.365 242.235C296.502 239.964 283.212 240.674 283.212 240.674Z" fill="#FBBEBE"/>
<path d="M293.872 250.468C293.872 250.468 282.501 249.332 281.791 250.468C281.293 251.391 281.009 252.455 281.009 253.52C281.009 253.52 276.46 255.436 275.679 254.655C274.897 253.875 274.186 251.604 271.912 252.384C269.638 253.165 265.089 266.721 265.089 266.721C265.089 266.721 266.226 262.534 268.145 278.432C270.064 294.33 269.638 304.125 270.064 305.26C270.491 306.396 268.145 313.209 281.791 313.209C295.436 313.209 305.244 312.429 305.244 309.802C305.244 307.176 302.969 295.821 305.244 287.517C307.518 279.213 310.929 267.857 310.929 267.857L306.381 253.094C306.381 253.094 301.832 251.958 300.695 253.875C299.558 255.791 296.502 255.365 296.502 255.365C296.502 255.365 296.147 250.894 293.872 250.468Z" fill="#605D82"/>
<path d="M272.268 253.165L262.815 248.978C262.815 248.978 245.048 235.351 245.759 223.285C245.759 223.285 239.718 217.607 239.291 223.64C238.936 229.673 240.784 243.3 245.332 247.842C249.881 252.384 265.374 266.721 267.648 267.147C269.922 267.573 272.268 253.165 272.268 253.165Z" fill="#605D82"/>
<path d="M240.073 224.42C240.073 224.42 232.895 204.761 239.291 205.541C245.687 206.322 244.195 214.626 244.195 214.626V224.42H240.073Z" fill="#FBBEBE"/>
<path d="M304.817 253.875L314.27 249.687C314.27 249.687 332.037 236.06 331.326 223.995C331.326 223.995 337.367 218.317 337.794 224.349C338.22 230.382 336.301 244.009 331.753 248.552C327.204 253.094 311.711 267.431 309.437 267.857C307.163 268.283 304.817 253.875 304.817 253.875Z" fill="#605D82"/>
<path d="M337.011 225.201C337.011 225.201 344.189 205.541 337.793 206.322C331.326 207.103 332.889 215.407 332.889 215.407V225.201H337.011Z" fill="#FBBEBE"/>
<path d="M295.72 229.744L296.857 228.963C296.857 228.963 289.679 224.775 286.623 227.047C283.567 229.318 282.857 231.234 282.075 231.944C281.293 232.724 279.445 236.841 280.583 238.402C281.72 239.893 281.364 240.248 282.075 241.596C282.786 242.945 280.725 248.41 286.552 250.042C292.309 251.675 296.857 244.861 297.639 243.371C298.421 241.88 301.051 231.589 295.72 229.744Z" fill="#46455B"/>
<path d="M393 291C393 330.813 418.054 363 449 363L393 291Z" fill="#004CFF"/>
<path d="M449 363C449 322.677 476.742 290 511 290L449 363Z" fill="#004CFF"/>
<path d="M413 295C413 332.591 429.121 363 449 363L413 295Z" fill="#F98F72"/>
<path d="M449 363C449 311.573 481.187 270 521 270L449 363Z" fill="#F98F72"/>
<path d="M437 363.299C437 363.299 445.04 363.028 447.513 361.335C449.987 359.643 459.882 357.611 460.5 360.32C461.119 363.028 472.594 373.93 463.524 373.998C454.454 374.065 442.36 372.576 439.955 371.154C437.55 369.732 437 363.299 437 363.299Z" fill="#5EB3FE"/>
<path opacity="0.2" d="M463.636 373.023C454.574 373.093 442.492 371.561 440.089 370.1C438.236 368.986 437.481 364.879 437.275 363C437.137 363 437 363 437 363C437 363 437.481 369.613 439.952 371.074C442.423 372.536 454.437 374.067 463.499 373.998C466.108 373.998 467 373.023 467 371.631C466.588 372.466 465.558 373.023 463.636 373.023Z" fill="black"/>
</svg>
