<svg width="75" height="75" viewBox="0 0 75 75" fill="none" xmlns="http://www.w3.org/2000/svg">
<rect width="75" height="75" rx="37.5" fill="#CAEAFF"/>
<path opacity="0.5" d="M55.4125 34.4999C54.9792 34.3119 54.4984 34.2543 54.0316 34.3347C53.5647 34.415 53.1329 34.6295 52.7913 34.9509L47.875 39.4609V35.6879C47.872 34.869 47.538 34.0845 46.9458 33.5055C46.3536 32.9264 45.5513 32.5998 44.7138 32.5969H26.2863C25.4487 32.5998 24.6464 32.9264 24.0542 33.5055C23.462 34.0845 23.128 34.869 23.125 35.6879V48.3489C23.128 49.1678 23.462 49.9523 24.0542 50.5314C24.6464 51.1104 25.4487 51.437 26.2863 51.4399H44.7138C45.5513 51.437 46.3536 51.1104 46.9458 50.5314C47.538 49.9523 47.872 49.1678 47.875 48.3489V44.5759L52.7913 49.1299C53.236 49.5471 53.8287 49.7796 54.445 49.7789C54.7779 49.7781 55.1072 49.7107 55.4125 49.5809C55.8539 49.4 56.2294 49.0935 56.4902 48.7011C56.751 48.3088 56.8851 47.8488 56.875 47.3809V36.6339C56.8717 36.1773 56.7313 35.7316 56.4714 35.3523C56.2114 34.9729 55.8432 34.6765 55.4125 34.4999ZM37.1425 42.0129C37.1425 42.448 37.0105 42.8734 36.7633 43.2352C36.5161 43.597 36.1647 43.8789 35.7535 44.0455C35.3424 44.212 34.89 44.2555 34.4535 44.1707C34.0171 44.0858 33.6162 43.8762 33.3015 43.5686C32.9868 43.2609 32.7726 42.8689 32.6857 42.4421C32.5989 42.0154 32.6435 41.573 32.8138 41.171C32.9841 40.769 33.2725 40.4254 33.6425 40.1837C34.0125 39.942 34.4475 39.8129 34.8925 39.8129C35.4892 39.8129 36.0615 40.0447 36.4835 40.4573C36.9054 40.8699 37.1425 41.4294 37.1425 42.0129Z" fill="#18A0FB"/>
<path opacity="0.9" d="M39.3813 30.738C42.4817 30.738 44.9951 28.2805 44.9951 25.249C44.9951 22.2175 42.4817 19.76 39.3813 19.76C36.2809 19.76 33.7676 22.2175 33.7676 25.249C33.7676 28.2805 36.2809 30.738 39.3813 30.738Z" fill="#18A0FB"/>
<path opacity="0.9" d="M28.8737 30.7381C31.1043 30.7381 32.9125 28.9701 32.9125 26.7891C32.9125 24.6081 31.1043 22.8401 28.8737 22.8401C26.6432 22.8401 24.835 24.6081 24.835 26.7891C24.835 28.9701 26.6432 30.7381 28.8737 30.7381Z" fill="#18A0FB"/>
</svg>
