<svg width="28" height="28" viewBox="0 0 28 28" fill="none" xmlns="http://www.w3.org/2000/svg">
<g opacity="0.9">
<path fill-rule="evenodd" clip-rule="evenodd" d="M13.6926 0.953125C6.2369 0.953125 0.192871 6.99718 0.192871 14.4529C0.192871 21.9086 6.2369 27.9527 13.6926 27.9527C21.1483 27.9527 27.1923 21.9086 27.1923 14.4529C27.1923 6.99718 21.1483 0.953125 13.6926 0.953125ZM19.3185 9.81226C19.9381 9.98228 20.4261 10.4832 20.5916 11.1194C20.8926 12.2724 20.8926 14.6782 20.8926 14.6782C20.8926 14.6782 20.8926 17.0838 20.5916 18.2369C20.4261 18.8731 19.9381 19.3741 19.3185 19.5442C18.1956 19.8531 13.6927 19.8531 13.6927 19.8531C13.6927 19.8531 9.18975 19.8531 8.06682 19.5442C7.44722 19.3741 6.95926 18.8731 6.79367 18.2369C6.49283 17.0838 6.49283 14.6782 6.49283 14.6782C6.49283 14.6782 6.49283 12.2724 6.79367 11.1194C6.95926 10.4832 7.44722 9.98228 8.06682 9.81226C9.18975 9.50327 13.6927 9.50327 13.6927 9.50327C13.6927 9.50327 18.1956 9.50327 19.3185 9.81226Z" fill="white"/>
<path d="M12.3428 17.1537V12.6538L15.9427 14.9039L12.3428 17.1537Z" fill="white"/>
</g>
</svg>
